<?xml version="1.0" encoding="utf-8"?>
<!-- Generator: Adobe Illustrator 18.0.0, SVG Export Plug-In . SVG Version: 6.00 Build 0)  -->
<!DOCTYPE svg PUBLIC "-//W3C//DTD SVG 1.1//EN" "http://www.w3.org/Graphics/SVG/1.1/DTD/svg11.dtd">
<svg version="1.1" id="Ebene_1" xmlns="http://www.w3.org/2000/svg" xmlns:xlink="http://www.w3.org/1999/xlink" x="0px" y="0px"
	 viewBox="0 0 595.3 841.9" enable-background="new 0 0 595.3 841.9" xml:space="preserve">
<g>
	<path d="M7823.8,615c-4.8,0-8.9-1.8-11.9-5.4l-150-173.8c-5.4-6.5-4.8-16.1,1.8-22c6.5-5.4,16.1-4.8,22,1.8l135.7,157.2l216.1-359
		c4.2-7.1,14.3-9.5,21.4-5.4s9.5,14.3,5.4,21.4l-227.4,377.4c-2.4,4.2-7.1,7.1-11.9,7.7C7825,615,7824.4,615,7823.8,615z"/>
</g>
<g>
	<g>
		<path d="M4362.2,544.8l-9.5-2.4c-17.3-4.8-36.3-7.7-55.4-8.9s-38.7-1.2-56.6,1.2l-9.5,1.2l-3.6-8.9
			c-11.9-29.8-17.3-66.7-14.3-104.8c6.5-85.7,48.8-150.6,99.4-150.6c1.2,0,3,0,4.2,0c51.8,3.6,86.9,75.6,80.4,164.3
			c-3,38.1-13.1,74.4-29.8,101.8L4362.2,544.8z M4273.5,506.7c8.3,0,16.7,0.6,25,1.2c17.3,1.2,34.5,3.6,50.6,7.7
			c11.9-22.6,19-51.8,21.4-82.1c5.4-71.4-20.8-133.9-56.6-136.3c-0.6,0-1.8,0-2.4,0c-31,0-67.9,51.2-73.2,126.8
			c-2.4,30.4,1.2,59.5,9.5,83.9C4256.3,506.7,4265.2,506.7,4273.5,506.7z"/>
	</g>
	<g>
		<path d="M4302.7,716.2c-37.5,0-69.1-48.2-70.8-110.1c0-6,0-11.9,0-17.3l0.6-11.9l133.3-4.2l1.2,11.9c0.6,6,1.2,11.9,1.2,17.3
			c1.8,63.1-26.2,113.1-64.9,114.9L4302.7,716.2z M4257.4,601.9c0,1.2,0,2.4,0,3.6c1.8,50,25,85.1,44.6,85.1h0.6
			c20.2-0.6,41.7-36.9,39.9-88.1c0-1.2,0-2.4,0-3.6L4257.4,601.9z"/>
	</g>
	<g>
		<path d="M4505.1,369.2l-4.8-8.3c-16.1-27.4-26.8-63.7-29.8-101.8c-7.1-88.1,28.6-160.1,79.8-163.7c1.2,0,3,0,4.2,0
			c50.6,0,92.9,64.9,99.4,150.6c3,38.1-2.4,75.6-14.3,104.8l-3.6,8.9l-9.5-1.2c-17.9-1.8-36.9-2.4-56.6-1.2
			c-19.6,1.2-38.1,4.8-55.4,8.9L4505.1,369.2z M4554.5,120.9c-0.6,0-1.8,0-2.4,0c-35.7,2.4-61.9,64.9-56.6,136.3
			c2.4,30.4,9.5,58.9,21.4,82.1c16.1-3.6,32.7-6,50.6-7.7c17.3-1.2,34.5-1.2,51.2,0c8.3-24.4,11.3-53.6,9.5-83.9
			C4622.9,172.1,4586,120.9,4554.5,120.9z"/>
	</g>
	<g>
		<path d="M4564.6,541.2h-1.2c-38.7-1.2-67.3-51.8-64.9-114.9c0-6,0.6-11.9,1.2-17.3l1.2-11.9l133.3,4.2l0.6,11.9
			c0.6,6,0.6,11.9,0,17.3C4633.1,492.4,4602.1,541.2,4564.6,541.2z M4524.1,423.9c0,1.2,0,2.4,0,3.6c-1.8,51.2,19.6,86.9,39.9,88.1
			h0.6c19.6,0,43.5-35.1,44.6-85.1c0-1.2,0-2.4,0-3.6L4524.1,423.9z"/>
	</g>
</g>
<g>
	<g>
		<path d="M6139.1,691.2c-144.7,0-262.5-117.9-262.5-262.5s117.9-262.5,262.5-262.5c144.7,0,262.5,117.9,262.5,262.5
			C6402.2,552.5,6289.7,691.2,6139.1,691.2z M6139.1,191.2c-130.4,0-236.9,106-236.9,236.9s106,236.9,236.9,236.9
			c133.3,0,236.9-127.4,236.9-236.9C6376,297.7,6269.5,191.2,6139.1,191.2z"/>
	</g>
	<g>
		<path d="M6245.7,515c-2.4,0-5.4-0.6-7.1-2.4L6132,438.8c-3.6-2.4-5.4-6.5-5.4-10.7v-147c0-7.1,6-13.1,13.1-13.1s13.1,6,13.1,13.1
			v140.5l100.6,69.6c6,4.2,7.1,11.9,3.6,17.9C6253.4,513.2,6249.8,515,6245.7,515z"/>
	</g>
	<g>
		<path d="M6389.1,441.2h-39.3c-7.1,0-13.1-6-13.1-13.1s6-13.1,13.1-13.1h39.3c7.1,0,13.1,6,13.1,13.1S6396.3,441.2,6389.1,441.2z"
			/>
	</g>
	<g>
		<path d="M5929.6,441.2h-40.5c-7.1,0-13.1-6-13.1-13.1s6-13.1,13.1-13.1h40.5c7.1,0,13.1,6,13.1,13.1S5937.3,441.2,5929.6,441.2z"
			/>
	</g>
	<g>
		<path d="M6139.1,691.2c-7.1,0-13.1-6-13.1-13.1V637c0-7.1,6-13.1,13.1-13.1s13.1,6,13.1,13.1v41.1
			C6152.2,685.2,6146.3,691.2,6139.1,691.2z"/>
	</g>
	<g>
		<path d="M6139.1,232.2c-7.1,0-13.1-6-13.1-13.1v-40.5c0-7.1,6-13.1,13.1-13.1s13.1,6,13.1,13.1v41.1
			C6152.2,226.3,6146.3,232.2,6139.1,232.2z"/>
	</g>
</g>
<g id="Expanded_1_">
	<g>
		<g>
			<g>
				<path d="M6835,494.8c-4.2,0-7.7-1.8-10.1-4.8l-88.7-102.4c-4.8-6-4.2-14.3,1.2-19c5.4-4.8,14.3-4.2,19,1.2l76.8,88.7l63.7-98.8
					c4.2-6.5,12.5-8.3,18.5-4.2c6.5,4.2,8.3,12.5,4.2,18.5l-73.2,113.7c-2.4,3.6-6,6-10.7,6C6835.6,494.8,6835.6,494.8,6835,494.8z"
					/>
			</g>
		</g>
		<g>
			<g>
				<path d="M7363,528.1c-4.2,0-8.9-1.8-11.3-6l-65.5-97l-75,89.9c-4.8,6-13.1,6.5-19,1.8c-6-4.8-6.5-13.1-1.8-19l86.9-103.6
					c3-3.6,6.5-5.4,11.3-4.8c4.2,0,8.3,2.4,10.7,6l75.6,112.5c4.2,6,2.4,14.9-3.6,19C7367.8,527.5,7365.4,528.1,7363,528.1z"/>
			</g>
		</g>
		<g>
			<g>
				<path d="M7058.2,671.6c-63.1,0-124.4-24.4-170.8-70.2c-5.4-5.4-5.4-13.7,0-19c5.4-5.4,13.7-5.4,19,0
					c53.6,53,129.2,73.8,201.8,56.6c106.6-25,178-126.2,165.5-235.1c-0.6-7.1,4.8-14.3,11.9-14.9c7.7-1.2,14.3,4.8,14.9,11.9
					c14.3,122.6-66.1,235.7-185.7,264.3C7096.3,669.8,7077.3,671.6,7058.2,671.6z"/>
			</g>
		</g>
		<g>
			<g>
				<path d="M6835,494.8c-6,0-11.9-4.2-13.1-10.7c-14.9-63.1-4.2-128.6,29.8-183.9s88.1-94.1,151.2-108.9
					c87.5-20.8,178.6,8.3,238.7,75.6c4.8,5.4,4.2,14.3-1.2,19c-5.4,4.8-14.3,4.2-19-1.2c-53-60.1-134.5-85.7-211.9-67.3
					c-56,13.1-104.2,47.6-134.5,97c-30.4,49.4-39.9,107.2-26.2,163.7c1.8,7.1-3,14.9-10.1,16.1
					C6837.4,494.8,6836.2,494.8,6835,494.8z"/>
			</g>
		</g>
	</g>
</g>
<g>
	<g>
		<path d="M5284.9,626.9c-101.8,0-211.9-22-211.9-70.2v-5.4l40.5-37.5V374.5c0-107.2,71.4-185.1,169.7-185.1s169.7,78,169.7,185.1
			v138.7l44.6,37.5v6C5496.8,604.9,5387.3,626.9,5284.9,626.9z M5101,561.4c10.1,15.5,74.4,39.9,184.5,39.9
			c108.9,0,173.2-23.8,183.9-39.3l-42.9-36.3V374.5c0-92.3-60.1-158.9-143.5-158.9c-83.3,0-143.5,66.7-143.5,158.9v150.6L5101,561.4
			z"/>
	</g>
	<g>
		<path d="M5333.7,638.8c0,21.4-22.6,39.3-51.2,39.3c-28,0-51.2-17.3-51.2-39.3H5333.7z"/>
		<path d="M5283.1,680.5c-29.8,0-53.6-18.5-53.6-41.7v-2.4h107.2v2.4C5336.7,662,5312.3,680.5,5283.1,680.5z M5234.9,641.8
			c1.8,19,22.6,33.9,48.2,33.9c25.6,0,46.4-14.9,48.2-33.9H5234.9z"/>
	</g>
	<g>
		<path d="M5303.4,202.5v-20.2c0-10.1-8.9-18.5-20.8-18.5c-11.3,0-20.8,8.3-20.8,18.5v20.8"/>
		<path d="M5306.3,202.5h-5.4v-20.2c0-8.9-8.3-16.1-17.9-16.1c-10.1,0-17.9,7.1-17.9,16.1v20.8h-5.4v-20.8
			c0-11.3,10.1-20.8,23.2-20.8c12.5,0,23.2,9.5,23.2,20.8V202.5L5306.3,202.5z"/>
	</g>
</g>
<path id="friends_list_1_" fill-rule="evenodd" clip-rule="evenodd" fill="#FFFFFF" d="M360.8,406c-0.9-2.7-7.4-21.1-24.9-21.1
	h-36.9l3.7-12.6c16-4,30-7.6,40.3-19.9h44.5c12.2,0,16,12.4,16,12.4l13.2,41.3H360.8z M354.1,341.1c-2.1,0-4.2-0.2-6.3-0.5
	c8.3-12.3,13.2-27.2,13.2-43.1c0-33.7-16.2-39.3-29.4-53.2c-35.9,11,72.1-32.5,72.1,47.3C403.5,318.9,381.4,341.1,354.1,341.1z
	 M345.8,301.6c0,34.2-27.8,62-62,62c-34.2,0-62-27.7-62-62c0-34.2,27.7-62,62-62C318.1,239.6,345.8,267.4,345.8,301.6z M273.7,256.5
	c-19,6.8,4.3,31-37.4,45.1c0,26.3,21.3,47.5,47.5,47.5c26.3,0,47.5-21.3,47.5-47.5C307.2,281.6,266.5,290.8,273.7,256.5z
	 M238.5,243.1c-13.9,13.9-31.9,24.2-31.9,54.4c0,16.2,5,36.5,13.5,48.9c-0.3,0-0.6,0.1-0.9,0.1c-27.3,0-49.5-27.6-49.5-54.9
	C169.7,216.2,278.7,251.3,238.5,243.1z M188.4,352.3h36.1c12,14.4,21.5,18.9,41,21.5l2.5,11h-32.2c-17.5,0-23.4,18.4-24.3,21.1
	h-54.7l15.9-41.3C172.8,364.7,176.2,352.3,188.4,352.3z M245.4,389.9h80.4c15.3,0,20.1,15.5,20.1,15.5l16.6,49.2H205.8l19.9-49.2
	C225.7,405.4,230,389.9,245.4,389.9z"/>
</svg>
