<?xml version="1.0" encoding="utf-8"?>
<!-- Generator: Adobe Illustrator 18.0.0, SVG Export Plug-In . SVG Version: 6.00 Build 0)  -->
<!DOCTYPE svg PUBLIC "-//W3C//DTD SVG 1.1//EN" "http://www.w3.org/Graphics/SVG/1.1/DTD/svg11.dtd">
<svg version="1.1" id="Livello_1" xmlns="http://www.w3.org/2000/svg" xmlns:xlink="http://www.w3.org/1999/xlink" x="0px" y="0px"
	 viewBox="0 0 100 100" enable-background="new 0 0 100 100" xml:space="preserve">
<g>
	<path fill="#FFFFFF" d="M50,7c23.7,0,43,19.3,43,43S73.7,93,50,93S7,73.7,7,50S26.3,7,50,7 M50,5C25.2,5,5,25.1,5,50s20.2,45,45,45
		s45-20.1,45-45S74.8,5,50,5L50,5z"/>
</g>
<path fill="#FFFFFF" d="M77.8,49.2h-1.6c-1.2-5-5.6-8.6-10.9-8.6c-5.6,0-10.3,4.2-11.1,9.6c-0.9-1-2.2-1.3-3.6-1.3s-2.7,0.3-3.6,1.3
	c-0.8-5.4-5.5-9.6-11.1-9.6c-5.3,0-9.8,3.7-10.9,8.6h-1.6c-0.7,0-1.3,0.6-1.3,1.3v0c0,0.7,0.6,1.3,1.3,1.3h1.3
	c0,6.2,5,11.2,11.2,11.2s11.2-5,11.2-11.2c0,0,0,0,0,0c0.6-1.3,1.9-2.2,3.5-2.2s2.8,0.9,3.5,2.2c0,0,0,0,0,0C54,58,59,63,65.2,63
	c6.2,0,11.2-5,11.2-11.2h1.3c0.7,0,1.3-0.6,1.3-1.3v0C79.1,49.7,78.5,49.2,77.8,49.2 M35.8,61.7c-5.5,0-9.9-4.5-9.9-9.9
	c0-5.5,4.5-9.9,9.9-9.9s9.9,4.5,9.9,9.9C45.8,57.2,41.3,61.7,35.8,61.7 M65.2,61.7c-5.5,0-9.9-4.5-9.9-9.9c0-5.5,4.5-9.9,9.9-9.9
	s9.9,4.5,9.9,9.9C75.2,57.2,70.7,61.7,65.2,61.7"/>
</svg>
