<?xml version="1.0" encoding="utf-8"?>
<!-- Generator: Adobe Illustrator 16.2.1, SVG Export Plug-In . SVG Version: 6.00 Build 0)  -->
<!DOCTYPE svg PUBLIC "-//W3C//DTD SVG 1.1//EN" "http://www.w3.org/Graphics/SVG/1.1/DTD/svg11.dtd">
<svg version="1.1" id="Layer_1" xmlns="http://www.w3.org/2000/svg" xmlns:xlink="http://www.w3.org/1999/xlink" x="0px" y="0px"
	 width="400px" height="200px" viewBox="0 0 400 200" enable-background="new 0 0 400 200" xml:space="preserve">
<g>
	<g>
		<path fill="#E41635" d="M286.693,131.086l-29.906-29.907c-0.002-0.006-0.004-0.01-0.009-0.014
			c-0.147-0.153-0.268-0.332-0.35-0.531c-0.083-0.199-0.126-0.41-0.128-0.625c0-0.003-0.001-0.006-0.001-0.011
			c0-0.217,0.046-0.433,0.129-0.637c0.086-0.203,0.206-0.387,0.358-0.541l29.906-29.906c0.651-0.65,1.706-0.65,2.357,0
			c0.326,0.326,0.488,0.752,0.488,1.178s-0.162,0.853-0.488,1.177l-27.062,27.063h71.096c0.92,0,1.666,0.746,1.666,1.666
			c0,0.921-0.746,1.665-1.666,1.665h-71.098l27.064,27.064c0.326,0.324,0.488,0.749,0.488,1.179c0,0.426-0.162,0.85-0.488,1.178
			C288.399,131.735,287.346,131.735,286.693,131.086"/>
	</g>
	<g>
		<path fill="#E41635" d="M95.644,131.086l-29.905-29.907c-0.003-0.006-0.005-0.01-0.01-0.014c-0.147-0.153-0.268-0.332-0.35-0.531
			c-0.083-0.199-0.126-0.41-0.128-0.625c0-0.003-0.001-0.006-0.001-0.011c0-0.217,0.046-0.433,0.129-0.637
			c0.086-0.203,0.206-0.387,0.359-0.541l29.905-29.906c0.651-0.65,1.707-0.65,2.357,0c0.325,0.326,0.488,0.752,0.488,1.178
			s-0.163,0.853-0.488,1.177L70.938,98.334h71.096c0.921,0,1.665,0.746,1.665,1.666c0,0.921-0.744,1.665-1.665,1.665H70.937
			l27.064,27.064c0.325,0.324,0.488,0.749,0.488,1.179c0,0.426-0.163,0.85-0.488,1.178
			C97.351,131.735,96.297,131.735,95.644,131.086"/>
	</g>
</g>
</svg>
