<?xml version="1.0" encoding="utf-8"?>
<!-- Generator: Adobe Illustrator 18.0.0, SVG Export Plug-In . SVG Version: 6.00 Build 0)  -->
<!DOCTYPE svg PUBLIC "-//W3C//DTD SVG 1.1//EN" "http://www.w3.org/Graphics/SVG/1.1/DTD/svg11.dtd">
<svg version="1.1" id="Ebene_1" xmlns="http://www.w3.org/2000/svg" xmlns:xlink="http://www.w3.org/1999/xlink" x="0px" y="0px"
	 viewBox="0 0 595.3 841.9" enable-background="new 0 0 595.3 841.9" xml:space="preserve">
<g>
	<g>
		<path d="M-1899.6,282.9h-270.1c-7.1,0-13-6-13-13c0-7.1,6-13,13-13h270.1c7.1,0,13,6,13,13C-1886.2,277-1892.1,282.9-1899.6,282.9
			z"/>
	</g>
	<g>
		<path d="M-2034.6,282.9c-6,0-10.8-3.7-12.6-9.7l-16-61.4l-149.9-97.5c-6-4.1-7.8-11.9-3.7-17.9c4.1-6,11.9-7.8,17.9-3.7
			l158.5,103.1l19,70.7c1.9,7.1-2.2,14.1-8.9,16C-2032,282.9-2033.5,282.9-2034.6,282.9z"/>
	</g>
	<g>
		<path d="M-1966.2,678h-138c-6,0-11.2-4.1-12.6-10l-74.4-355.3c-0.7-3.7,0-7.8,2.2-10.8c2.2-3,6-4.8,10-4.8h287.6
			c4.1,0,7.8,1.9,10,4.8c2.2,3,3.7,7.1,2.2,10.8l-74.4,355.3C-1954.7,673.9-1960.2,678-1966.2,678z M-2094.2,652.4h117.2l69.2-329.3
			H-2163L-2094.2,652.4z"/>
	</g>
</g>
<g>
	<g>
		<path d="M-1167.5,277.3c-34.6,0-63.2-27.9-63.2-63.2c0-34.6,27.9-63.2,63.2-63.2c34.6,0,63.2,27.9,63.2,63.2
			S-1132.9,277.3-1167.5,277.3z M-1167.5,177.6c-20.1,0-36.8,16.7-36.8,36.8s16.7,36.8,36.8,36.8c20.1,0,36.8-16.7,36.8-36.8
			C-1130.3,194-1147,177.6-1167.5,177.6z"/>
	</g>
	<g>
		<path d="M-1387,585.8h-1.1c-3.7,0-86.3-5.2-110.9-7.1c-14.1-1.1-52.5-4.1-52.5-36.5c0-7.8,3.7-32.7,45.4-35
			c22-1.1,77.4-5.2,96-6.7l41.7-60.3l21.6,14.9l-48.7,70.3l-6,0.7c-0.7,0-75.5,5.2-102.3,6.7c-3.7,0-20.8,1.9-20.8,9.7
			c0,1.9,0,8.2,27.9,10c23.8,1.9,103.4,6.7,110.1,7.1c6.7,0,12.6-3.7,16.7-9.7l43.9-63.2l21.6,14.9l-43.9,63.2
			C-1358,578-1372.1,585.8-1387,585.8z"/>
	</g>
	<g>
		<path d="M-1276.1,709.7L-1276.1,709.7c-3.7,0-7.8-0.7-11.2-2.2c-11.2-4.8-27.5-21.6-4.8-75.5l35.7-88.2l-87.4-58.4
			c-35.7-30.5-25.7-59.5-10-87.1l0.7-0.7l56.6-84.1l-26-6l-70.7,37.6c-6,3.7-17.1,7.8-27.5,7.8c-12.6,0-18.6-6-20.8-9.7
			c-10-14.9-4.1-32.7,17.9-51.7l0.7-0.7l72.5-55.8c8.2-6,19-7.8,29-6l87.4,19c6,1.1,11.2,4.1,16,7.8l42.8,29
			c15.6,10.8,8.9,37.6,2.2,46.9l-70.7,113.8l66.2,45.4c17.1,11.9,23.8,34.6,14.9,52.8l-0.7,0.7l-60.6,115.3
			C-1242.3,694-1258.3,709.7-1276.1,709.7z M-1276.9,683.6c0.7,0,0.7,0,0.7,0c1.1,0,10.8-1.1,29-34.6l60.3-115c3-7.8,0.7-16-6-20.8
			l-87.1-59.5l84.5-135.1c1.9-2.2,3-9.7,3-12.6l-42.8-29c-1.9-1.1-3.7-2.2-5.2-3l-87.4-19c-3-0.7-6.7,0-8.9,1.9l-71.4,54.7
			c-8.9,7.8-12.6,13-13,15.6c4.1,0,10-1.9,13.8-4.1l0.7-0.7l79.6-42.4l73.3,16l-77.4,115c-14.1,24.6-15.6,36.5,4.1,53.6l103.4,68.5
			l-43.9,108.3C-1281,671.7-1278,681.8-1276.9,683.6z"/>
	</g>
	<g>
		<path d="M-1166,441h-1.1c-14.1-1.9-26-13.8-30.9-24.6l-19.7-46.5l23.8-10l19,46.5c1.9,4.1,6,8.2,9.7,8.9c8.9,0,61.4-1.1,76.3-2.2
			c17.9-1.1,23.8-3.7,25.7-4.8c0-2.2-2.2-4.1-19.7-5.2l-69.6-6l-39.8-90l23.8-10.8l33.5,76.3l54.3,4.8c15.6,1.1,44.6,3,43.5,33.5
			c-1.1,26-37.9,27.9-49.9,28.6c-16.7,1.1-76.3,2.2-78.5,2.2L-1166,441z"/>
	</g>
</g>
<g>
	<path d="M1387-240.9c-6.7,0-11.9-4.1-12.6-10.8l-52.8-285.7l-24.9,84.1c-1.9,5.2-6.7,9.7-12.6,9.7h-154.8v-26H1274l37.9-126.1
		c1.9-6,7.1-9.7,13-9.7c6,0.7,10.8,4.8,11.9,10.8l48.4,260.1l64.7-455.4c1.1-6.7,6.7-11.2,12.6-11.2c6.7,0,11.9,4.8,13,10.8
		l63.6,381.7l36.8-55.4c2.2-3.7,6.7-6,10.8-6h126.9v26h-119.8l-51,76.3c-3,4.1-8.2,6.7-13.8,5.2c-5.2-1.1-8.9-5.2-10-10.8
		l-55.4-331.1L1399.2-252C1398.9-245.8,1393.7-240.9,1387-240.9L1387-240.9z"/>
</g>
<g>
	<g>
		<g>
			<path d="M717.3-358.1c-0.7,0-1.9,0-2.2,0c-0.7,0-1.9,0-2.2,0l0,0C641.5-360,592-399,580.1-464.1c-8.9-51.3,10-102.3,42.8-121.3
				c0-75.5,0-201.7,0.7-255.2C624.7-912,682-931,712.1-931c0.7,0,81.1,0,83.3,97.1c1.1,44.6,0.7,103.1,0.7,164.8
				c0,27.9-0.7,55.4-0.7,82.2c36.5,19,57.3,73.3,48.4,126.9C832.6-397.6,785.8-360,717.3-358.1L717.3-358.1L717.3-358.1z
				 M712.1-905.4c-6.7,0-61.8,2.2-63.2,64.7c-0.7,55.4-0.7,188.6-0.7,263v8.9l-8.2,3c-26,9.7-42.4,54.3-34.6,96.4
				c4.1,24.9,23.8,83.3,109.4,84.5c81.1-1.1,99.3-56.6,103.4-80.4c7.8-43.9-11.2-91.5-39.8-101.9l-8.9-3v-8.9c0-29,0-60.3,0.7-91.2
				c0.7-61.8,0.7-120.2-0.7-164.4C767.2-902.8,718.1-905.4,712.1-905.4z"/>
		</g>
	</g>
	<g>
		<path d="M712.1-412.4c-40.6,0-73.3-32.7-73.3-73.3s32.7-73.3,73.3-73.3s73.3,32.7,73.3,73.3C784.7-445.2,751.9-412.4,712.1-412.4z
			 M712.1-532.2c-26,0-46.9,20.8-46.9,46.9c0,26,20.8,46.9,46.9,46.9c26,0,46.9-20.8,46.9-46.9S737.4-532.2,712.1-532.2z"/>
	</g>
	<g>
		<path d="M712.1-532.2c-7.1,0-13-6-13-13v-257.1c0-7.1,6-13,13-13c7.1,0,13,6,13,13v257.1C724.4-538.2,719.2-532.2,712.1-532.2z"/>
	</g>
	<g>
		<path d="M573.7-839.9h-42.4c-7.1,0-13-6-13-13c0-7.1,6-13,13-13h42.4c7.1,0,13,6,13,13C587.1-845.9,581.1-839.9,573.7-839.9z"/>
	</g>
	<g>
		<path d="M573.7-723.1h-42.4c-7.1,0-13-6-13-13s6-13,13-13h42.4c7.1,0,13,6,13,13C586.4-729.1,581.1-723.1,573.7-723.1z"/>
	</g>
	<g>
		<path d="M573.7-607h-42.4c-7.1,0-13-6-13-13s6-13,13-13h42.4c7.1,0,13,6,13,13S581.1-607,573.7-607z"/>
	</g>
</g>
<g>
	<path d="M7823.5,615.2c-4.8,0-8.9-1.9-11.9-5.2l-149.9-174.2c-5.2-6.7-4.8-16,1.9-22c6.7-5.2,16-4.8,22,1.9l135.8,157l216.2-359
		c4.1-7.1,14.1-9.7,21.6-5.2c7.4,4.5,9.7,14.1,5.2,21.6l-227.3,377.3c-2.2,4.1-7.1,7.1-11.9,7.8
		C7824.7,615.2,7823.9,615.2,7823.5,615.2z"/>
</g>
<g>
	<g>
		<path d="M4362.2,544.8l-9.7-2.2c-17.1-4.8-36.5-7.8-55.4-8.9c-19-1.1-38.7-1.1-56.6,1.1l-9.7,1.1l-3.7-8.9
			c-11.9-29.8-17.1-66.6-14.1-104.9c6.7-85.6,48.7-150.7,99.3-150.7c1.1,0,3,0,4.1,0c51.7,3.7,87.1,75.5,80.4,164.4
			c-3,37.9-13,74.4-29.8,101.9L4362.2,544.8z M4273.3,506.5c8.2,0,16.7,0.7,24.9,1.1c17.1,1.1,34.6,3.7,50.6,7.8
			c11.9-22.7,19-51.7,21.6-82.2c5.2-71.4-20.8-133.9-56.6-136.2c-0.7,0-1.9,0-2.2,0c-30.9,0-67.7,51.3-73.3,126.9
			c-2.2,30.5,1.1,59.5,9.7,84.1C4256.2,506.5,4265.1,506.5,4273.3,506.5z"/>
	</g>
	<g>
		<path d="M4302.7,716.4c-37.6,0-69.2-48.4-70.7-110.1c0-6,0-11.9,0-17.1l0.7-11.9l133.2-4.1l1.1,11.9c0.7,6,1.1,11.9,1.1,17.1
			c1.9,63.2-26,113.1-64.7,115L4302.7,716.4z M4257.3,601.8c0,1.1,0,2.2,0,3.7c1.9,49.9,24.9,85.2,44.6,85.2h0.7
			c20.1-0.7,41.7-36.8,39.8-88.2c0-1.1,0-2.2,0-3.7L4257.3,601.8z"/>
	</g>
	<g>
		<path d="M4505,369.2l-4.8-8.2c-16-27.5-26.8-63.6-29.8-101.9c-7.1-88.2,28.6-160,79.6-163.7c1.1,0,3,0,4.1,0
			c50.6,0,93,64.7,99.3,150.7c3,37.9-2.2,75.5-14.1,104.9l-3.7,8.9l-9.7-1.1c-17.9-1.9-36.8-2.2-56.6-1.1
			c-19.8,1.1-37.9,4.8-55.4,8.9L4505,369.2z M4554.4,121.1c-0.7,0-1.9,0-2.2,0c-35.7,2.2-61.8,64.7-56.6,136.2
			c2.2,30.5,9.7,58.8,21.6,82.2c16-3.7,32.7-6,50.6-7.8c17.1-1.1,34.6-1.1,51.3,0c8.2-24.6,11.2-53.6,9.7-84.1
			C4622.9,172,4585.7,121.1,4554.4,121.1z"/>
	</g>
	<g>
		<path d="M4564.5,541.1h-1.1c-38.7-1.1-67.3-51.7-64.7-115c0-6,0.7-11.9,1.1-17.1l1.1-11.9l133.2,4.1l0.7,11.9
			c0.7,6,0.7,11.9,0,17.1C4632.9,492.4,4602.1,541.1,4564.5,541.1z M4523.9,423.9c0,1.1,0,2.2,0,3.7c-1.9,51.3,19.7,87.1,39.8,88.2
			h0.7c19.7,0,43.5-35,44.6-85.2c0-1.1,0-2.2,0-3.7L4523.9,423.9z"/>
	</g>
</g>
<g>
	<g>
		<g>
			<path d="M-88.2-514.8h-210.2c-3.7,0-6.7-1.1-8.9-3.7c-2.2-2.2-3.7-6-3.7-9.7c0-2.2,1.9-212.1,0-335.2
				c-0.7-41.7,8.9-72.5,27.9-91.5c18.6-18.6,40.9-22.7,57.3-22.7c12.6,0,21.6,2.2,22,2.2c6,1.9,9.7,6.7,9.7,12.6
				c0,63.6,45.4,116.8,108.3,126.9c6.7,1.1,10.8,6.7,10.8,13v294.7C-75.2-520.7-81.1-514.8-88.2-514.8z M-285-541.2h183.8v-271.6
				c-66.2-15.2-113.8-71-118.3-139.1c-11.2-1.1-30.5,0-45.4,14.1c-14.1,14.1-20.8,39.4-20.8,73.3
				C-283.5-757.7-284.6-588.8-285-541.2z"/>
		</g>
		<g>
			<path d="M169.7-514.8H-40.9c-7.1,0-13-6-13-13v-294.7c0-6.7,4.8-11.9,10.8-13c63.2-10,109-63.2,109-126.9c0-6.7,4.8-11.9,11.2-13
				c1.9,0,45.4-6.7,76.6,24.9c19.7,19.7,29,48.7,29,87.1c0,112.4,0,335.2,0,335.2c0,3.7-1.1,6.7-3.7,8.9
				C176.4-515.9,172.6-514.8,169.7-514.8z M-27.9-541.2h183.8c0-49.5,0-226.2,0-322.2c0-30.9-7.1-54.3-22-68.5
				c-14.1-14.1-32-17.1-43.9-17.9C84.8-882.3,37.2-826.9-28.3-812C-27.9-812-27.9-541.2-27.9-541.2z"/>
		</g>
		<g>
			<path d="M-63.2-850c-65.5,0-118.3-52.8-118.3-118.3s52.8-118.3,118.3-118.3s118.3,52.8,118.3,118.3S2.2-850-63.2-850z
				 M-63.2-1061.3c-51.3,0-92.3,41.7-92.3,92.3c0,51.3,41.7,92.3,92.3,92.3c51.3,0,92.3-41.7,92.3-92.3
				C29-1019.6-12.6-1061.3-63.2-1061.3z"/>
		</g>
	</g>
	<g>
		<rect x="-76.3" y="-1074.3" width="26" height="32"/>
	</g>
	<g>
		<rect x="10" y="-981.7" width="32" height="26"/>
	</g>
	<g>
		<rect x="-168.5" y="-981.7" width="32" height="26"/>
	</g>
	<g>
		<path d="M-61.8-957.1L-48-972c0,0-58.4-51.3-63.6-45.4C-116.8-1011.8-61.8-957.1-61.8-957.1"/>
	</g>
	<g>
		<circle cx="-60.6" cy="-969" r="17.9"/>
	</g>
</g>
<g>
	<g>
		<g>
			<path d="M-1427.6-753.6c7.8-4.1,15.6-7.8,23.8-10c0-1.1-0.7-2.2-1.1-3.7C-1413-762.9-1420.5-758.8-1427.6-753.6L-1427.6-753.6z"
				/>
		</g>
		<g>
			<path d="M-1501.9-554.6c-17.1,19-39.4,42.4-47.6,51.7c0,0-1.1,0.7-1.9,1.1c0-0.7-1.1-1.1-1.9-1.9
				c-46.5-52.8-123.9-142.9-123.9-225.1c0-69.6,56.6-126.1,126.1-126.1c49.9,0,93,29,113.1,70.7c7.1-4.8,14.1-8.9,22-12.6
				c-24.9-49.9-76.3-84.1-135.1-84.1c-83.3,0-151.1,66.6-151.1,151.1c0,88.2,75.5,178.6,131,241.8c0,0,8.9,10,20.1,10h1.1
				c10.8,0,19.7-10,20.1-10c6.7-7.8,24.6-26.8,39.4-42.8C-1495.2-537.5-1498.9-545.6-1501.9-554.6z"/>
		</g>
	</g>
	<g>
		<path d="M-1345.3-789.7c-83.3,0-151.1,66.6-151.1,151.1c0,88.2,75.5,178.6,131,241.8c0,0,8.9,10,20.1,10h1.1
			c10.8,0,19.7-10,20.1-10c55.4-63.2,131-153.7,131-241.8C-1194.3-722.7-1261.2-789.7-1345.3-789.7 M-1343.5-413.6
			c0,0-1.1,0.7-1.9,1.1c0-0.7-1.1-1.1-1.9-1.9c-46.5-52.8-123.9-142.9-123.9-225.1c0-69.6,56.6-126.1,126.1-126.1
			S-1219-709-1219-639.5C-1219.2-556.4-1297-467.1-1343.5-413.6"/>
	</g>
</g>
<g>
	<g>
		<path fill="#FFFFFF" d="M429.7,1100.3c-25.7,0-46.5-20.8-46.5-46.5s20.8-46.5,46.5-46.5c25.7,0,46.5,20.8,46.5,46.5
			S455.4,1100.3,429.7,1100.3z M429.7,1022.2c-17.1,0-31.6,14.1-31.6,31.6c0,17.1,14.1,31.6,31.6,31.6c17.5,0,31.6-14.1,31.6-31.6
			C461.3,1036.3,447.2,1022.2,429.7,1022.2z"/>
	</g>
	<g>
		<path fill="#FFFFFF" d="M541,1053.8c0,30.5-12.6,58.4-32.7,78.5l11.2,11.2c23.1-23.1,36.8-54.7,36.8-90c0-35-14.1-66.6-36.8-90
			l-11.2,11.2C528.7,995.4,541,1023.3,541,1053.8"/>
	</g>
	<g>
		<path fill="#FFFFFF" d="M319.2,1053.8c0-30.5,12.6-58.4,32.7-78.5l-11.2-11.2c-23.1,23.1-37.6,54.7-37.6,90
			c0,35,14.1,66.6,37.6,90L352,1133C331.5,1112.2,319.2,1083.9,319.2,1053.8"/>
	</g>
	<g>
		<path fill="#FFFFFF" d="M501.2,1053.8c0,19.7-7.8,37.6-20.8,50.6l11.2,11.2c16-16,25.7-37.6,25.7-61.8c0-23.8-9.7-45.8-25.7-61.8
			l-11.2,11.2C493.3,1016.2,501.2,1034.1,501.2,1053.8"/>
	</g>
	<g>
		<path fill="#FFFFFF" d="M358.3,1053.8c0-19.7,7.8-37.6,20.8-50.6L368,992c-16,16-25.7,37.6-25.7,61.8c0,23.8,9.7,45.8,25.7,61.8
			l11.2-11.2C366.8,1091.4,358.3,1073.5,358.3,1053.8"/>
	</g>
	<g>
		<path fill="#FFFFFF" d="M429.7,1232.4c-4.1,0-7.1-3.7-7.1-7.1v-125.8c0-4.1,3.7-7.1,7.1-7.1c4.1,0,7.1,3.7,7.1,7.1v125.8
			C436.8,1229.4,433.8,1232.4,429.7,1232.4z"/>
	</g>
</g>
<g>
	<g>
		<path d="M-618-559h-309.5c-7.1,0-13-6-13-13v-309.5c0-7.1,6-13,13-13H-618c7.1,0,13,6,13,13V-572C-605-565-610.9-559-618-559z
			 M-914.5-585.1h283.9V-869h-283.9V-585.1z"/>
	</g>
	<g>
		<path d="M-698.3-639.4h-149.6c-7.1,0-13-6-13-13V-802c0-7.1,6-13,13-13h149.6c7.1,0,13,6,13,13v149.6
			C-685.3-644.6-691.3-639.4-698.3-639.4z M-834.5-664.7h123.9v-123.9h-123.9V-664.7z"/>
	</g>
	<g>
		<path d="M-877.3-928.5c-7.1,0-13-6-13-13v-60.3c0-7.1,6-13,13-13c7.1,0,13,6,13,13v60.3C-864.3-934.4-870.2-928.5-877.3-928.5z"/>
	</g>
	<g>
		<path d="M-772.7-928.5c-7.1,0-13-6-13-13v-60.3c0-7.1,6-13,13-13c7.1,0,13,6,13,13v60.3C-759.7-934.4-765.7-928.5-772.7-928.5z"/>
	</g>
	<g>
		<path d="M-667.8-928.5c-7.1,0-13-6-13-13v-60.3c0-7.1,6-13,13-13c7.1,0,13,6,13,13v60.3C-654.8-934.4-660.8-928.5-667.8-928.5z"/>
	</g>
	<g>
		<path d="M-877.3-432.2c-7.1,0-13-6-13-13v-60.3c0-7.1,6-13,13-13c7.1,0,13,6,13,13v60.3C-864.3-438.1-870.2-432.2-877.3-432.2z"/>
	</g>
	<g>
		<path d="M-772.7-432.2c-7.1,0-13-6-13-13v-60.3c0-7.1,6-13,13-13c7.1,0,13,6,13,13v60.3C-759.7-438.1-765.7-432.2-772.7-432.2z"/>
	</g>
	<g>
		<path d="M-667.8-432.2c-7.1,0-13-6-13-13v-60.3c0-7.1,6-13,13-13c7.1,0,13,6,13,13v60.3C-654.8-438.1-660.8-432.2-667.8-432.2z"/>
	</g>
	<g>
		<path d="M-493-818.4h-59.5c-7.1,0-13-6-13-13c0-7.1,6-13,13-13h59.5c7.1,0,13,6,13,13S-485.9-818.4-493-818.4z"/>
	</g>
	<g>
		<path d="M-493-713.8h-59.5c-7.1,0-13-6-13-13c0-7.1,6-13,13-13h59.5c7.1,0,13,6,13,13C-479.9-719.8-485.9-713.8-493-713.8z"/>
	</g>
	<g>
		<path d="M-493-608.9h-59.5c-7.1,0-13-6-13-13c0-7.1,6-13,13-13h59.5c7.1,0,13,6,13,13S-485.9-608.9-493-608.9z"/>
	</g>
	<g>
		<path d="M-990.4-818.4h-59.5c-7.1,0-13-6-13-13c0-7.1,6-13,13-13h59.5c7.1,0,13,6,13,13S-983.3-818.4-990.4-818.4z"/>
	</g>
	<g>
		<path d="M-990.4-713.8h-59.5c-7.1,0-13-6-13-13c0-7.1,6-13,13-13h59.5c7.1,0,13,6,13,13S-983.3-713.8-990.4-713.8z"/>
	</g>
	<g>
		<path d="M-990.4-608.9h-59.5c-7.1,0-13-6-13-13c0-7.1,6-13,13-13h59.5c7.1,0,13,6,13,13S-983.3-608.9-990.4-608.9z"/>
	</g>
</g>
<g>
	<g>
		<g>
			<path d="M2513.1-365.6l-71.4-40.9c-6-3.7-8.2-11.2-4.8-17.9c3.7-6,11.2-8.2,17.9-4.8l49.5,28.6c22.7-39.4,34.6-84.1,34.6-129.1
				c0-142.9-116.1-259.7-259.7-259.7c-89.3,0-171.5,45.4-219.1,120.2c-26,41.7-40.6,89.3-40.6,138.8c0,45.8,11.9,90,34.6,129.1
				l51.7-25.7c6.7-3,14.1-0.7,17.1,6c3,6.7,0.7,14.1-6,17.1l-73.3,35.7l-6-9.7c-29-45.8-44.6-99-44.6-152.9s15.6-107.2,43.9-152.9
				c52.8-82.6,142.9-132.8,241.1-132.8c157,0,285,128,285,285c0,54.7-15.6,108.3-45.4,154L2513.1-365.6z"/>
		</g>
		<g>
			<path d="M2451.7-627.5c-4.8,0-8.9-2.2-11.2-6.7c-3.7-6.7-1.1-14.1,5.2-17.9l54.3-29.8c6.7-3.7,14.1-1.1,17.9,5.2
				c3.7,6.7,1.1,14.1-5.2,17.9l-54.3,29.8C2456.2-627.9,2453.6-627.5,2451.7-627.5z"/>
		</g>
		<g>
			<path d="M2279.8-717.2c-7.1,0-13-6-13-13v-72.2c0-7.1,6-13,13-13c7.1,0,13,6,13,13v72.2C2292.8-723.1,2286.9-717.2,2279.8-717.2z
				"/>
		</g>
		<g>
			<path d="M2107.2-627.5c-2.2,0-4.8-0.7-6.7-1.9l-57.3-35.7c-6-3.7-7.8-11.9-4.1-17.9s11.9-7.8,17.9-4.1l57.3,35.7
				c6,3.7,7.8,11.9,4.1,17.9C2115.4-629,2111.3-627.5,2107.2-627.5z"/>
		</g>
	</g>
	<g>
		<path d="M2371.3-357.8h-173.7c-7.1,0-13-6-13-13c0-7.1,6-13,13-13h173.7c7.1,0,13,6,13,13C2384.4-363.7,2378.8-357.8,2371.3-357.8
			z"/>
	</g>
	<path d="M2279.8-592.1c-27.9,0-50.6,22.7-50.6,50.6c0,27.9,22.7,50.6,50.6,50.6c27.9,0,50.6-22.7,50.6-50.6
		C2330.4-569.4,2307.7-592.1,2279.8-592.1z M2279.8-514.8c-14.1,0-26-11.9-26-26s11.9-26,26-26s26,11.9,26,26
		C2305.9-526.7,2294-514.8,2279.8-514.8z"/>
	<g>
		<path d="M2269-565.4c-7.8,0-11.9,0-11.9,0l0.7,9.7C2260.1-560.2,2264.2-563.1,2269-565.4z"/>
		<path d="M2290.6-565.4c9.7,4.1,16,13,16,24.6c0,14.1-11.9,26-26,26c-8.2,0-15.6-4.1-20.1-10l1.1,17.1c0,0,219.1-19,218-40.9
			C2477.4-564.2,2352-566.1,2290.6-565.4z"/>
	</g>
</g>
<g>
	<g>
		<path d="M-483.3,255.4L-483.3,255.4c-26,0-49.9-16.7-58.8-41.7c-11.9-32.7,5.2-68.5,37.6-80.4c7.1-2.2,14.1-3.7,21.6-3.7
			c26,0,49.9,16.7,58.8,41.7c11.9,32.7-5.2,68.5-37.6,80.4C-469.2,254.3-476.2,255.4-483.3,255.4z M-483.3,155.3
			c-4.1,0-8.2,0.7-12.6,2.2c-19,7.1-29,27.9-22,46.9c5.2,14.1,19,24.6,34.6,24.6l0,0c4.1,0,8.2-0.7,12.6-2.2c19-7.1,29-27.9,22-46.9
			C-454.3,165.7-468,155.3-483.3,155.3z"/>
	</g>
	<g>
		<path d="M-631,709.7c-4.1,0-8.2-1.1-12.6-3.7c-31.6-17.9-16-45.8-7.8-60.6c2.2-4.1,4.8-8.2,6-11.9c11.2-28.6,27.9-78.5,29.8-83.3
			l20.1-76.3l24.9,6.7l-20.1,77.4c-0.7,2.2-17.9,54.7-30.5,85.6c-1.9,4.8-4.8,10-7.1,14.1c-11.2,20.1-8.9,21.6-2.2,25.7
			c6-3.7,17.9-24.6,23.1-35c24.9-44.6,27.9-49.9,27.9-49.9l2.2-4.1c8.2-16,11.2-22,16.7-37.6l8.9-23.8l24.6,8.9l-8.9,23.8
			c-6.7,17.9-9.7,24.6-20.1,45.4l-2.2,4.1h-0.7c-3,5.2-10,18.6-25.7,45.8c-14.9,26.8-24.9,43.5-39.8,47.6
			C-626.9,708.9-628.8,709.7-631,709.7z"/>
	</g>
	<g>
		<path d="M-465.1,707.8L-465.1,707.8c-11.2,0-26.8-7.8-52.5-64.7l-0.7-1.1l-18.6-55.4l-27.5-82.2c-37.9-16.7-38.7-46.5-33.5-76.3
			l16-78.5l-10.8,5.2l-42.4,48.7c-1.1,1.1-2.2,3-3.7,4.1c-10.8,14.1-20.1,25.7-32,25.7c-3.7,0-7.1-1.1-10-3.7
			c-24.6-17.9,4.1-69.6,5.2-72.2l0.7-0.7l46.5-75.2c6-8.2,20.8-17.1,30.9-19l60.3-17.1c6-0.7,11.9,0,17.9,1.9l50.6,12.6
			c17.9,4.8,21.6,32,18.6,43.5L-479.9,447l-4.8,19c0,22,0,22.7,2.2,44.6l32,93.4c8.9,31.6,17.9,87.4-6,100.1
			C-458.4,707.4-462.1,707.8-465.1,707.8z M-493.3,633.4c12.6,27.5,20.8,39.8,25.7,45.4c1.9-10,1.9-32.7-7.1-64.7l-32.7-95.2V517
			c-2.2-24.6-2.2-24.9-2.2-49.9v-1.9l5.2-22l30.9-143.6c0.7-3,0-9.7-1.9-12.6l-50.6-12.6c-1.9-0.7-3.7-1.1-4.8-0.7l-59.5,16.7
			c-3.7,0.7-11.9,6-14.1,8.2l-45.8,73.3c-4.8,8.2-8.2,17.9-10,25.7c1.1-1.9,2.2-3.7,3.7-4.8c1.9-1.9,3-3.7,4.1-5.2l0.7-0.7
			l45.8-52.5l63.6-33.5L-570.9,433c-4.8,27.9-2.2,39.8,22.7,49.5l6,2.2l32,94.1L-493.3,633.4z"/>
	</g>
	<g>
		<path d="M-332.2,464.5c-10,0-23.1-4.1-40.6-9.7c-2.2-0.7-5.2-1.9-7.1-2.2c-20.8-6.7-58.4-23.8-60.3-24.6l-3-1.1l-1.9-3
			c-4.1-5.2-4.8-6.7-5.2-7.1c-0.7-0.7-0.7-0.7-6-8.2l-0.7-1.1l-0.7-1.9l-22.7-54.3l23.8-10l22,52.5c3,4.1,4.1,5.2,4.1,6
			c0.7,0.7,1.1,1.9,4.1,5.2c9.7,4.1,37.6,16.7,54.3,22c2.2,0.7,4.8,1.9,7.8,2.2c4.8,1.9,13,4.1,20.8,6.7c-10.8-10-32-21.6-43.5-26.8
			c-8.2-4.1-14.9-7.8-20.1-11.2l-2.2-1.9l-26-45.4l-40.6-66.2l22-13.8l40.9,66.6l23.1,40.6c4.1,2.2,9.7,5.2,15.6,8.2
			c28.6,14.9,63.6,33.5,63.6,60.3c0,6-2.2,10.8-7.1,13.8C-322.2,463.4-326.7,464.5-332.2,464.5z"/>
	</g>
</g>
<g>
	<g>
		<path d="M6139,691.1c-144.7,0-262.7-117.9-262.7-262.7s117.9-262.7,262.7-262.7s262.7,117.9,262.7,262.7
			C6402,552.7,6289.7,691.1,6139,691.1z M6139,191c-130.2,0-237,106-237,237s106,237,237,237c133.2,0,237-127.2,237-237
			C6376,297.8,6269.2,191,6139,191z"/>
	</g>
	<g>
		<path d="M6245.4,515.1c-2.2,0-5.2-0.7-7.1-2.2l-106.4-73.7c-3.7-2.2-5.2-6.7-5.2-10.8V281.1c0-7.1,6-13,13-13c7.1,0,13,6,13,13
			v140.6l100.5,69.6c6,4.1,7.1,11.9,3.7,17.9C6253.2,513.2,6249.5,515.1,6245.4,515.1z"/>
	</g>
	<g>
		<path d="M6389,441h-39.4c-7.1,0-13-6-13-13c0-7.1,6-13,13-13h39.4c7.1,0,13,6,13,13C6402,435.1,6396.1,441,6389,441z"/>
	</g>
	<g>
		<path d="M5929.5,441h-40.6c-7.1,0-13-6-13-13c0-7.1,6-13,13-13h40.6c7.1,0,13,6,13,13C5942.6,435.1,5937,441,5929.5,441z"/>
	</g>
	<g>
		<path d="M6139,691.1c-7.1,0-13-6-13-13v-40.9c0-7.1,6-13,13-13c7.1,0,13,6,13,13V678C6152,685.1,6146.1,691.1,6139,691.1z"/>
	</g>
	<g>
		<path d="M6139,232.3c-7.1,0-13-6-13-13v-40.6c0-7.1,6-13,13-13c7.1,0,13,6,13,13v40.9C6152,226.4,6146.1,232.3,6139,232.3z"/>
	</g>
</g>
<g id="Expanded_1_">
	<g>
		<g>
			<g>
				<path d="M6834.7,494.6c-4.1,0-7.8-1.9-10-4.8l-88.5-102.3c-4.8-6-4.1-14.1,1.1-19c5.2-4.8,14.1-4.1,19,1.1l76.6,88.5l63.6-99
					c4.1-6.7,12.6-8.2,18.6-4.1c6.7,4.1,8.2,12.6,4.1,18.6l-73.3,113.8c-2.2,3.7-6,6-10.8,6C6835.5,494.6,6835.5,494.6,6834.7,494.6
					z"/>
			</g>
		</g>
		<g>
			<g>
				<path d="M7362.7,528.1c-4.1,0-8.9-1.9-11.2-6L7286,425l-75.2,90c-4.8,6-13,6.7-19,1.9c-6-4.8-6.7-13-1.9-19l87.1-103.4
					c3-3.7,6.7-5.2,11.2-4.8c4.1,0,8.2,2.2,10.8,6l75.5,112.4c4.1,6,2.2,14.9-3.7,19C7367.5,527.4,7365.3,528.1,7362.7,528.1z"/>
			</g>
		</g>
		<g>
			<g>
				<path d="M7058,671.7c-63.2,0-124.3-24.6-170.8-70.3c-5.2-5.2-5.2-13.8,0-19c5.2-5.2,13.8-5.2,19,0
					c53.6,52.8,129.1,73.7,201.7,56.6c106.4-24.9,177.8-126.1,165.6-235.1c-0.7-7.1,4.8-14.1,11.9-14.9c7.8-1.1,14.1,4.8,14.9,11.9
					c14.1,122.8-66.2,235.9-185.7,264.2C7096.3,669.8,7076.9,671.7,7058,671.7z"/>
			</g>
		</g>
		<g>
			<g>
				<path d="M6834.7,494.6c-6,0-11.9-4.1-13-10.8c-14.9-63.2-4.1-128.7,29.8-183.8c33.9-55.4,88.2-94.1,151.1-109
					c87.4-20.8,178.6,8.2,238.9,75.5c4.8,5.2,4.1,14.1-1.1,19c-5.2,4.8-14.1,4.1-19-1.1c-52.8-60.3-134.7-85.6-212.1-67.3
					c-55.8,13-104.2,47.6-134.7,97.1s-39.8,107.2-26,163.7c1.9,7.1-3,14.9-10,16C6837.3,494.6,6835.8,494.6,6834.7,494.6z"/>
			</g>
		</g>
	</g>
</g>
<g>
	<g>
		<path d="M5284.8,627.1c-101.9,0-212.1-22-212.1-70.3v-5.6l40.6-37.6V374.4c0-107.2,71.4-185.3,169.7-185.3
			c98.3,0,169.7,78.1,169.7,185.3v138.8l44.6,37.6v6C5496.5,604.7,5387.1,627.1,5284.8,627.1z M5100.6,561.6
			c10,15.6,74.4,39.8,184.5,39.8c109,0,173.4-23.8,183.8-39.4l-42.8-36.5V374.4c0-92.3-60.3-158.9-143.6-158.9
			c-83.3,0-143.6,66.6-143.6,158.9v150.7L5100.6,561.6z"/>
	</g>
	<g>
		<path d="M5333.5,639c0,21.6-22.7,39.4-51.3,39.4c-27.9,0-51.3-17.1-51.3-39.4H5333.5z"/>
		<path d="M5282.9,680.6c-29.8,0-53.6-18.6-53.6-41.7v-2.2h107.2v2.2C5336.5,662,5311.9,680.6,5282.9,680.6z M5234.5,641.9
			c1.9,19,22.7,33.9,48.4,33.9c25.7,0,46.5-14.9,48.4-33.9H5234.5z"/>
	</g>
	<g>
		<path d="M5303,202.6v-20.1c0-10-8.9-18.6-20.8-18.6c-11.2,0-20.8,8.2-20.8,18.6v20.8"/>
		<path d="M5306,202.6h-5.2v-20.1c0-8.9-8.2-16-17.9-16c-10,0-17.9,7.1-17.9,16v20.8h-5.2v-20.8c0-11.2,10-20.8,23.1-20.8
			c12.6,0,23.1,9.7,23.1,20.8V202.6L5306,202.6z"/>
	</g>
</g>
<path id="inbox_1_" fill="#FFFFFF" d="M381.9,421.4H186.7c-13.5,0-24.4-10.9-24.4-24.4V231.1c0-13.5,10.9-24.4,24.4-24.4h195.2
	c13.5,0,24.4,10.9,24.4,24.4V397C406.3,410.5,395.4,421.4,381.9,421.4z M206.2,401.9h156.2c10.3,0,19-6.3,22.6-15.3l-62-54.2
	l-38.7,32.5l-37.8-32.4l-62.2,55.7C188.2,396.2,196.5,401.9,206.2,401.9z M339.7,317.4l47.1,41.9v-83.8L339.7,317.4z M230,317.4
	l-48.2-43.8v87.6L230,317.4z M362.4,226.2H206.2c-11.6,0-21.2,8.1-23.7,18.9l101.8,91.2L386.4,247
	C384.6,235.2,374.6,226.2,362.4,226.2z"/>
</svg>
