<?xml version="1.0" encoding="utf-8"?>
<!-- Generator: Adobe Illustrator 18.0.0, SVG Export Plug-In . SVG Version: 6.00 Build 0)  -->
<!DOCTYPE svg PUBLIC "-//W3C//DTD SVG 1.1//EN" "http://www.w3.org/Graphics/SVG/1.1/DTD/svg11.dtd">
<svg version="1.1" id="Ebene_1" xmlns="http://www.w3.org/2000/svg" xmlns:xlink="http://www.w3.org/1999/xlink" x="0px" y="0px"
	 viewBox="0 0 595.3 841.9" enable-background="new 0 0 595.3 841.9" xml:space="preserve">
<g>
	<g>
		<path d="M-1899.5,282.8h-270.3c-7.1,0-13.1-6-13.1-13.1s6-13.1,13.1-13.1h270.3c7.1,0,13.1,6,13.1,13.1
			S-1892.4,282.8-1899.5,282.8z"/>
	</g>
	<g>
		<path d="M-2034.7,282.8c-6,0-10.7-3.6-12.5-9.5l-16.1-61.3l-150-97.6c-6-4.2-7.7-11.9-3.6-17.9c4.2-6,11.9-7.7,17.9-3.6l158.3,103
			l19,70.8c1.8,7.1-2.4,14.3-8.9,16.1C-2032.3,282.8-2033.5,282.8-2034.7,282.8z"/>
	</g>
	<g>
		<path d="M-1966.2,678.1h-138.1c-6,0-11.3-4.2-12.5-10.1l-74.4-355.4c-0.6-3.6,0-7.7,2.4-10.7c2.4-3,6-4.8,10.1-4.8h287.5
			c4.2,0,7.7,1.8,10.1,4.8c2.4,3,3.6,7.1,2.4,10.7l-74.4,355.4C-1954.9,673.9-1960.3,678.1-1966.2,678.1z M-2094.2,652.5h117.3
			l69.1-329.2h-255.4L-2094.2,652.5z"/>
	</g>
</g>
<g>
	<g>
		<path d="M-1167.3,277.5c-34.5,0-63.1-28-63.1-63.1c0-34.5,28-63.1,63.1-63.1c34.5,0,63.1,28,63.1,63.1S-1132.8,277.5-1167.3,277.5
			z M-1167.3,177.5c-20.2,0-36.9,16.7-36.9,36.9s16.7,36.9,36.9,36.9c20.2,0,36.9-16.7,36.9-36.9S-1147.1,177.5-1167.3,177.5z"/>
	</g>
	<g>
		<path d="M-1387,585.8h-1.2c-3.6,0-86.3-5.4-110.7-7.1c-14.3-1.2-52.4-4.2-52.4-36.3c0-7.7,3.6-32.7,45.2-35.1
			c22-1.2,77.4-5.4,95.8-6.5l41.7-60.1l21.4,14.9l-48.8,70.2l-6,0.6c-0.6,0-75.6,5.4-102.4,6.5c-3.6,0-20.8,1.8-20.8,9.5
			c0,1.8,0,8.3,28,10.1c23.8,1.8,103.6,6.5,110.1,7.1c6.5,0,12.5-3.6,16.7-9.5l44.1-63.1l21.4,14.9l-44.1,63.1
			C-1357.8,578.1-1372.1,585.8-1387,585.8z"/>
	</g>
	<g>
		<path d="M-1276.3,709.7L-1276.3,709.7c-3.6,0-7.7-0.6-11.3-2.4c-11.3-4.8-27.4-21.4-4.8-75.6l35.7-88.1l-87.5-58.3
			c-35.7-30.4-25.6-59.5-10.1-86.9l0.6-0.6l56.6-83.9l-26.2-6l-70.8,37.5c-6,3.6-17.3,7.7-27.4,7.7c-12.5,0-18.5-6-20.8-9.5
			c-10.1-14.9-4.2-32.7,17.9-51.8l0.6-0.6l72.6-56c8.3-6,19-7.7,29.2-6l87.5,19c6,1.2,11.3,4.2,16.1,7.7l42.9,29.2
			c15.5,10.7,8.9,37.5,2.4,47l-70.8,113.7l66.1,45.2c17.3,11.9,23.8,34.5,14.9,53l-0.6,0.6l-60.7,115.5
			C-1242.3,694.2-1258.4,709.7-1276.3,709.7z M-1276.9,683.5c0.6,0,0.6,0,0.6,0c1.2,0,10.7-1.2,29.2-34.5L-1187,534
			c3-7.7,0.6-16.1-6-20.8l-86.9-59.5l84.5-135.1c1.8-2.4,3-9.5,3-12.5l-42.9-29.2c-1.8-1.2-3.6-2.4-5.4-3l-87.5-19
			c-3-0.6-6.5,0-8.9,1.8l-71.4,54.8c-8.9,7.7-12.5,13.1-13.1,15.5c4.2,0,10.1-1.8,13.7-4.2l0.6-0.6l79.8-42.3l73.2,16.1l-77.4,114.9
			c-14.3,24.4-15.5,36.3,4.2,53.6l103.6,68.5l-44.1,108.3C-1281,671.6-1278.1,681.7-1276.9,683.5z"/>
	</g>
	<g>
		<path d="M-1166.2,441.2h-1.2c-14.3-1.8-26.2-13.7-31-24.4l-19.6-46.4l23.8-10.1l19,46.4c1.8,4.2,6,8.3,9.5,8.9
			c8.9,0,61.3-1.2,76.2-2.4c17.9-1.2,23.8-3.6,25.6-4.8c0-2.4-2.4-4.2-19.6-5.4l-69.6-6l-39.9-89.9l23.8-10.7l33.3,76.2l54.2,4.8
			c15.5,1.2,44.6,3,43.5,33.3c-1.2,26.2-38.1,28-50,28.6c-16.7,1.2-76.2,2.4-78.6,2.4L-1166.2,441.2z"/>
	</g>
</g>
<g>
	<path d="M1387-241c-6.5,0-11.9-4.2-12.5-10.7l-53-285.7l-25,83.9c-1.8,5.4-6.5,9.5-12.5,9.5h-154.8v-26.2h144.7l38.1-126.2
		c1.8-6,7.1-9.5,13.1-9.5c6,0.6,10.7,4.8,11.9,10.7l48.2,260.1l64.9-455.4c1.2-6.5,6.5-11.3,12.5-11.3c6.5,0,11.9,4.8,13.1,10.7
		l63.7,381.6l36.9-55.4c2.4-3.6,6.5-6,10.7-6h126.8v26.2h-119.7l-51.2,76.8c-3,4.2-8.3,6.5-13.7,5.4c-5.4-1.2-8.9-5.4-10.1-10.7
		l-55.4-331l-64.3,452.4C1398.9-245.8,1393.6-241,1387-241L1387-241z"/>
</g>
<g>
	<g>
		<g>
			<path d="M717.3-358.3c-0.6,0-1.8,0-2.4,0c-0.6,0-1.8,0-2.4,0l0,0c-71.4-1.8-120.8-41.1-132.7-106
				c-8.9-51.2,10.1-102.4,42.9-121.4c0-75.6,0-201.8,0.6-255.4c1.2-71.4,58.3-90.5,88.7-90.5c0.6,0,81,0,83.3,97
				c1.2,44.6,0.6,103,0.6,164.9c0,28-0.6,55.4-0.6,82.1c36.3,19,57.1,73.2,48.2,126.8C832.8-397.6,785.8-360.1,717.3-358.3
				L717.3-358.3L717.3-358.3z M712-905.3c-6.5,0-61.9,2.4-63.1,64.9c-0.6,55.4-0.6,188.7-0.6,263.1v8.9l-8.3,3
				c-26.2,9.5-42.3,54.2-34.5,96.4c4.2,25,23.8,83.3,109.5,84.5c81-1.2,99.4-56.6,103.6-80.4c7.7-44.1-11.3-91.7-39.9-101.8l-8.9-3
				v-8.9c0-29.2,0-60.1,0.6-91.1c0.6-61.9,0.6-120.2-0.6-164.3C767.3-903,717.9-905.3,712-905.3z"/>
		</g>
	</g>
	<g>
		<path d="M712-412.4c-40.5,0-73.2-32.7-73.2-73.2s32.7-73.2,73.2-73.2s73.2,32.7,73.2,73.2C784.6-445.2,751.8-412.4,712-412.4z
			 M712-532.1c-26.2,0-47,20.8-47,47c0,26.2,20.8,47,47,47s47-20.8,47-47C759-511.3,737.6-532.1,712-532.1z"/>
	</g>
	<g>
		<path d="M712-532.1c-7.1,0-13.1-6-13.1-13.1v-257.2c0-7.1,6-13.1,13.1-13.1c7.1,0,13.1,6,13.1,13.1v257.2
			C724.5-538.1,719.1-532.1,712-532.1z"/>
	</g>
	<g>
		<path d="M573.8-839.9h-42.3c-7.1,0-13.1-6-13.1-13.1c0-7.1,6-13.1,13.1-13.1h42.3c7.1,0,13.1,6,13.1,13.1
			C586.9-845.8,581-839.9,573.8-839.9z"/>
	</g>
	<g>
		<path d="M573.8-723.2h-42.3c-7.1,0-13.1-6-13.1-13.1c0-7.1,6-13.1,13.1-13.1h42.3c7.1,0,13.1,6,13.1,13.1
			C586.4-729.1,581-723.2,573.8-723.2z"/>
	</g>
	<g>
		<path d="M573.8-607.1h-42.3c-7.1,0-13.1-6-13.1-13.1c0-7.1,6-13.1,13.1-13.1h42.3c7.1,0,13.1,6,13.1,13.1
			C586.9-613.1,581-607.1,573.8-607.1z"/>
	</g>
</g>
<g>
	<path d="M7823.8,615c-4.8,0-8.9-1.8-11.9-5.4l-150-173.8c-5.4-6.5-4.8-16.1,1.8-22c6.5-5.4,16.1-4.8,22,1.8l135.7,157.2l216.1-359
		c4.2-7.1,14.3-9.5,21.4-5.4s9.5,14.3,5.4,21.4l-227.4,377.4c-2.4,4.2-7.1,7.1-11.9,7.7C7825,615,7824.4,615,7823.8,615z"/>
</g>
<g>
	<g>
		<path d="M4362.2,544.8l-9.5-2.4c-17.3-4.8-36.3-7.7-55.4-8.9s-38.7-1.2-56.6,1.2l-9.5,1.2l-3.6-8.9
			c-11.9-29.8-17.3-66.7-14.3-104.8c6.5-85.7,48.8-150.6,99.4-150.6c1.2,0,3,0,4.2,0c51.8,3.6,86.9,75.6,80.4,164.3
			c-3,38.1-13.1,74.4-29.8,101.8L4362.2,544.8z M4273.5,506.7c8.3,0,16.7,0.6,25,1.2c17.3,1.2,34.5,3.6,50.6,7.7
			c11.9-22.6,19-51.8,21.4-82.1c5.4-71.4-20.8-133.9-56.6-136.3c-0.6,0-1.8,0-2.4,0c-31,0-67.9,51.2-73.2,126.8
			c-2.4,30.4,1.2,59.5,9.5,83.9C4256.3,506.7,4265.2,506.7,4273.5,506.7z"/>
	</g>
	<g>
		<path d="M4302.7,716.2c-37.5,0-69.1-48.2-70.8-110.1c0-6,0-11.9,0-17.3l0.6-11.9l133.3-4.2l1.2,11.9c0.6,6,1.2,11.9,1.2,17.3
			c1.8,63.1-26.2,113.1-64.9,114.9L4302.7,716.2z M4257.4,601.9c0,1.2,0,2.4,0,3.6c1.8,50,25,85.1,44.6,85.1h0.6
			c20.2-0.6,41.7-36.9,39.9-88.1c0-1.2,0-2.4,0-3.6L4257.4,601.9z"/>
	</g>
	<g>
		<path d="M4505.1,369.2l-4.8-8.3c-16.1-27.4-26.8-63.7-29.8-101.8c-7.1-88.1,28.6-160.1,79.8-163.7c1.2,0,3,0,4.2,0
			c50.6,0,92.9,64.9,99.4,150.6c3,38.1-2.4,75.6-14.3,104.8l-3.6,8.9l-9.5-1.2c-17.9-1.8-36.9-2.4-56.6-1.2
			c-19.6,1.2-38.1,4.8-55.4,8.9L4505.1,369.2z M4554.5,120.9c-0.6,0-1.8,0-2.4,0c-35.7,2.4-61.9,64.9-56.6,136.3
			c2.4,30.4,9.5,58.9,21.4,82.1c16.1-3.6,32.7-6,50.6-7.7c17.3-1.2,34.5-1.2,51.2,0c8.3-24.4,11.3-53.6,9.5-83.9
			C4622.9,172.1,4586,120.9,4554.5,120.9z"/>
	</g>
	<g>
		<path d="M4564.6,541.2h-1.2c-38.7-1.2-67.3-51.8-64.9-114.9c0-6,0.6-11.9,1.2-17.3l1.2-11.9l133.3,4.2l0.6,11.9
			c0.6,6,0.6,11.9,0,17.3C4633.1,492.4,4602.1,541.2,4564.6,541.2z M4524.1,423.9c0,1.2,0,2.4,0,3.6c-1.8,51.2,19.6,86.9,39.9,88.1
			h0.6c19.6,0,43.5-35.1,44.6-85.1c0-1.2,0-2.4,0-3.6L4524.1,423.9z"/>
	</g>
</g>
<g>
	<g>
		<rect x="3614.2" y="190.4" transform="matrix(0.7071 0.7071 -0.7071 0.7071 1351.6157 -2447.0933)" width="31" height="435.1"/>
	</g>
	<g>
		<path d="M3537.7,646c-4.2,0-7.7-1.8-10.7-4.8L3397.9,512c-6-6-6-16.1,0-22c6-6,16.1-6,22,0l129.2,129.2c6,6,6,16.1,0,22
			C3546.1,644.2,3541.9,646,3537.7,646z"/>
	</g>
	<g>
		<path d="M3465.7,638.2c-3.6,0-6.5-1.2-8.9-3.6l-48.2-48.2c-5.4-4.8-5.4-13.1,0-18.5c5.4-4.8,13.1-5.4,18.5,0l48.2,48.2
			c5.4,5.4,5.4,13.1,0,18.5C3472.9,637,3469.3,638.2,3465.7,638.2z"/>
	</g>
	<g>
		<path d="M3839,340.6c-4.2,0-7.7-1.8-10.7-4.8l-129.2-129.2c-6-6-6-16.1,0-22c6-6,16.1-6,22,0l128.6,129.2c6,6,6,16.1,0,22
			C3846.7,338.8,3843.1,340.6,3839,340.6z"/>
	</g>
	<g>
		<path d="M3415.1,644.8c-4.2,0-7.7-1.8-10.7-4.8c-6-6-6-16.1,0-22l24.4-24.4c6-6,16.1-6,22,0c6,6,6,16.1,0,22l-24.4,24.4
			C3422.9,643,3418.7,644.8,3415.1,644.8z"/>
	</g>
	<g>
		<path d="M3834.2,266.2c-3.6,0-6.5-1.2-8.9-3.6l-48.2-48.2c-5.4-5.4-5.4-13.1,0-18.5c5.4-5.4,13.1-5.4,18.5,0l48.2,48.2
			c5.4,5.4,5.4,13.1,0,18.5C3841.3,265,3837.8,266.2,3834.2,266.2z"/>
	</g>
	<g>
		<path d="M3812.8,240.6c-4.2,0-7.7-1.8-10.7-4.8c-6-6-6-16.1,0-22l24.4-24.4c6-6,16.1-6,22,0s6,16.1,0,22l-24.4,24.4
			C3820.5,239.4,3816.9,240.6,3812.8,240.6z"/>
	</g>
</g>
<g>
	<g>
		<g>
			<path d="M-88.1-514.8h-210.1c-3.6,0-6.5-1.2-8.9-3.6c-2.4-2.4-3.6-6-3.6-9.5c0-2.4,1.8-211.9,0-335.1c-0.6-41.7,8.9-72.6,28-91.7
				c18.5-18.5,41.1-22.6,57.1-22.6c12.5,0,21.4,2.4,22,2.4c6,1.8,9.5,6.5,9.5,12.5c0,63.7,45.2,116.7,108.3,126.8
				c6.5,1.2,10.7,6.5,10.7,13.1v294.7C-75-520.8-81-514.8-88.1-514.8z M-285.1-541h183.9v-271.4c-66.1-15.5-113.7-71.4-118.5-139.3
				c-11.3-1.2-30.4,0-45.2,14.3c-14.3,14.3-20.8,39.3-20.8,73.2C-283.4-757.7-284.5-588.6-285.1-541z"/>
		</g>
		<g>
			<path d="M169.7-514.8H-41.1c-7.1,0-13.1-6-13.1-13.1v-294.7c0-6.5,4.8-11.9,10.7-13.1c63.1-10.1,108.9-63.1,108.9-126.8
				c0-6.5,4.8-11.9,11.3-13.1c1.8,0,45.2-6.5,76.8,25c19.6,19.6,29.2,48.8,29.2,86.9c0,112.5,0,335.1,0,335.1c0,3.6-1.2,6.5-3.6,8.9
				C176.2-516,172.6-514.8,169.7-514.8z M-28-541H156c0-49.4,0-226.2,0-322c0-31-7.1-54.2-22-68.5c-14.3-14.3-32.1-17.3-44.1-17.9
				c-5.4,67.3-53,122.6-118.5,137.5C-28-811.9-28-541-28-541z"/>
		</g>
		<g>
			<path d="M-63.1-850c-65.5,0-118.5-53-118.5-118.5s53-118.5,118.5-118.5s118.5,53,118.5,118.5S2.4-850-63.1-850z M-63.1-1061.3
				c-51.2,0-92.3,41.7-92.3,92.3c0,51.2,41.7,92.3,92.3,92.3c51.2,0,92.3-41.7,92.3-92.3C29.2-1019.6-12.5-1061.3-63.1-1061.3z"/>
		</g>
	</g>
	<g>
		<rect x="-76.2" y="-1074.4" width="26.2" height="32.1"/>
	</g>
	<g>
		<rect x="10.1" y="-981.5" width="32.1" height="26.2"/>
	</g>
	<g>
		<rect x="-168.5" y="-981.5" width="32.1" height="26.2"/>
	</g>
	<g>
		<path d="M-61.9-957.1l13.7-14.9c0,0-58.3-51.2-63.7-45.2C-116.7-1011.9-61.9-957.1-61.9-957.1"/>
	</g>
	<g>
		<circle cx="-60.7" cy="-969" r="17.9"/>
	</g>
</g>
<g>
	<g>
		<g>
			<path d="M-1427.5-753.5c7.7-4.2,15.5-7.7,23.8-10.1c0-1.2-0.6-2.4-1.2-3.6C-1413.2-763.1-1420.3-758.9-1427.5-753.5
				L-1427.5-753.5z"/>
		</g>
		<g>
			<path d="M-1501.9-554.7c-17.3,19-39.3,42.3-47.6,51.8c0,0-1.2,0.6-1.8,1.2c0-0.6-1.2-1.2-1.8-1.8c-46.4-53-123.8-142.9-123.8-225
				c0-69.6,56.6-126.2,126.2-126.2c50,0,92.9,29.2,113.1,70.8c7.1-4.8,14.3-8.9,22-12.5c-25-50-76.2-83.9-135.1-83.9
				c-83.3,0-151.2,66.7-151.2,151.2c0,88.1,75.6,178.6,131,241.7c0,0,8.9,10.1,20.2,10.1h1.2c10.7,0,19.6-10.1,20.2-10.1
				c6.5-7.7,24.4-26.8,39.3-42.9C-1495.3-537.5-1498.9-545.8-1501.9-554.7z"/>
		</g>
	</g>
	<g>
		<path d="M-1345.3-789.9c-83.3,0-151.2,66.7-151.2,151.2c0,88.1,75.6,178.6,131,241.7c0,0,8.9,10.1,20.2,10.1h1.2
			c10.7,0,19.6-10.1,20.2-10.1c55.4-63.1,131-153.6,131-241.7C-1194.1-722.6-1261.4-789.9-1345.3-789.9 M-1343.5-413.6
			c0,0-1.2,0.6-1.8,1.2c0-0.6-1.2-1.2-1.8-1.8c-46.4-53-123.8-142.9-123.8-225c0-69.6,56.6-126.2,126.2-126.2
			c69.6,0,126.2,56.6,126.2,126.2C-1219.1-556.5-1297.1-467.2-1343.5-413.6"/>
	</g>
</g>
<g>
	<g>
		<path d="M-617.9-558.9h-309.5c-7.1,0-13.1-6-13.1-13.1v-309.5c0-7.1,6-13.1,13.1-13.1h309.5c7.1,0,13.1,6,13.1,13.1V-572
			C-604.8-564.8-610.8-558.9-617.9-558.9z M-914.4-585.1h283.9V-869h-283.9V-585.1z"/>
	</g>
	<g>
		<path d="M-698.3-639.2h-149.4c-7.1,0-13.1-6-13.1-13.1v-149.4c0-7.1,6-13.1,13.1-13.1h149.4c7.1,0,13.1,6,13.1,13.1v149.4
			C-685.2-644.6-691.1-639.2-698.3-639.2z M-834.6-664.8h123.8v-123.8h-123.8V-664.8z"/>
	</g>
	<g>
		<path d="M-877.4-928.6c-7.1,0-13.1-6-13.1-13.1v-60.1c0-7.1,6-13.1,13.1-13.1c7.1,0,13.1,6,13.1,13.1v60.1
			C-864.3-934.5-870.3-928.6-877.4-928.6z"/>
	</g>
	<g>
		<path d="M-772.7-928.6c-7.1,0-13.1-6-13.1-13.1v-60.1c0-7.1,6-13.1,13.1-13.1c7.1,0,13.1,6,13.1,13.1v60.1
			C-759.6-934.5-765.5-928.6-772.7-928.6z"/>
	</g>
	<g>
		<path d="M-667.9-928.6c-7.1,0-13.1-6-13.1-13.1v-60.1c0-7.1,6-13.1,13.1-13.1c7.1,0,13.1,6,13.1,13.1v60.1
			C-654.8-934.5-660.8-928.6-667.9-928.6z"/>
	</g>
	<g>
		<path d="M-877.4-432.1c-7.1,0-13.1-6-13.1-13.1v-60.1c0-7.1,6-13.1,13.1-13.1c7.1,0,13.1,6,13.1,13.1v60.1
			C-864.3-438-870.3-432.1-877.4-432.1z"/>
	</g>
	<g>
		<path d="M-772.7-432.1c-7.1,0-13.1-6-13.1-13.1v-60.1c0-7.1,6-13.1,13.1-13.1c7.1,0,13.1,6,13.1,13.1v60.1
			C-759.6-438-765.5-432.1-772.7-432.1z"/>
	</g>
	<g>
		<path d="M-667.9-432.1c-7.1,0-13.1-6-13.1-13.1v-60.1c0-7.1,6-13.1,13.1-13.1c7.1,0,13.1,6,13.1,13.1v60.1
			C-654.8-438-660.8-432.1-667.9-432.1z"/>
	</g>
	<g>
		<path d="M-492.9-818.4h-59.5c-7.1,0-13.1-6-13.1-13.1c0-7.1,6-13.1,13.1-13.1h59.5c7.1,0,13.1,6,13.1,13.1
			C-479.8-824.4-485.7-818.4-492.9-818.4z"/>
	</g>
	<g>
		<path d="M-492.9-713.7h-59.5c-7.1,0-13.1-6-13.1-13.1c0-7.1,6-13.1,13.1-13.1h59.5c7.1,0,13.1,6,13.1,13.1
			C-479.8-719.6-485.7-713.7-492.9-713.7z"/>
	</g>
	<g>
		<path d="M-492.9-608.9h-59.5c-7.1,0-13.1-6-13.1-13.1c0-7.1,6-13.1,13.1-13.1h59.5c7.1,0,13.1,6,13.1,13.1
			C-479.8-614.8-485.7-608.9-492.9-608.9z"/>
	</g>
	<g>
		<path d="M-990.5-818.4h-59.5c-7.1,0-13.1-6-13.1-13.1c0-7.1,6-13.1,13.1-13.1h59.5c7.1,0,13.1,6,13.1,13.1
			C-977.4-824.4-983.4-818.4-990.5-818.4z"/>
	</g>
	<g>
		<path d="M-990.5-713.7h-59.5c-7.1,0-13.1-6-13.1-13.1c0-7.1,6-13.1,13.1-13.1h59.5c7.1,0,13.1,6,13.1,13.1
			C-977.4-719.6-983.4-713.7-990.5-713.7z"/>
	</g>
	<g>
		<path d="M-990.5-608.9h-59.5c-7.1,0-13.1-6-13.1-13.1c0-7.1,6-13.1,13.1-13.1h59.5c7.1,0,13.1,6,13.1,13.1
			C-977.4-614.8-983.4-608.9-990.5-608.9z"/>
	</g>
</g>
<g>
	<g>
		<g>
			<path d="M2513.3-365.4l-71.4-41.1c-6-3.6-8.3-11.3-4.8-17.9c3.6-6,11.3-8.3,17.9-4.8l49.4,28.6c22.6-39.3,34.5-83.9,34.5-129.2
				c0-142.9-116.1-259.5-259.5-259.5c-89.3,0-171.4,45.2-219.1,120.2c-26.2,41.7-40.5,89.3-40.5,138.7c0,45.8,11.9,89.9,34.5,129.2
				l51.8-25.6c6.5-3,14.3-0.6,17.3,6c3,6.5,0.6,14.3-6,17.3l-73.2,35.7l-6-9.5c-29.2-45.8-44.6-98.8-44.6-153s15.5-107.2,44.1-153
				c53-82.7,142.9-132.7,241.1-132.7c157.2,0,285.1,128,285.1,285.1c0,54.8-15.5,108.3-45.2,154.2L2513.3-365.4z"/>
		</g>
		<g>
			<path d="M2452-627.3c-4.8,0-8.9-2.4-11.3-6.5c-3.6-6.5-1.2-14.3,5.4-17.9l54.2-29.8c6.5-3.6,14.3-1.2,17.9,5.4
				c3.6,6.5,1.2,14.3-5.4,17.9l-54.2,29.8C2456.1-627.9,2453.7-627.3,2452-627.3z"/>
		</g>
		<g>
			<path d="M2279.9-717.2c-7.1,0-13.1-6-13.1-13.1v-72c0-7.1,6-13.1,13.1-13.1c7.1,0,13.1,6,13.1,13.1v72
				C2293-723.2,2287.1-717.2,2279.9-717.2z"/>
		</g>
		<g>
			<path d="M2107.3-627.3c-2.4,0-4.8-0.6-6.5-1.8l-57.1-35.7c-6-3.6-7.7-11.9-4.2-17.9c3.6-6,11.9-7.7,17.9-4.2l57.1,35.7
				c6,3.6,7.7,11.9,4.2,17.9C2115.6-629.1,2111.5-627.3,2107.3-627.3z"/>
		</g>
	</g>
	<g>
		<path d="M2371.6-357.7h-173.8c-7.1,0-13.1-6-13.1-13.1s6-13.1,13.1-13.1h173.8c7.1,0,13.1,6,13.1,13.1S2378.7-357.7,2371.6-357.7z
			"/>
	</g>
	<path d="M2279.9-592.2c-28,0-50.6,22.6-50.6,50.6s22.6,50.6,50.6,50.6c28,0,50.6-22.6,50.6-50.6S2307.9-592.2,2279.9-592.2z
		 M2279.9-514.8c-14.3,0-26.2-11.9-26.2-26.2c0-14.3,11.9-26.2,26.2-26.2c14.3,0,26.2,11.9,26.2,26.2
		C2306.1-526.7,2294.2-514.8,2279.9-514.8z"/>
	<g>
		<path d="M2269.2-565.4c-7.7,0-11.9,0-11.9,0l0.6,9.5C2260.3-560.1,2264.4-563.1,2269.2-565.4z"/>
		<path d="M2290.6-565.4c9.5,4.2,16.1,13.1,16.1,24.4c0,14.3-11.9,26.2-26.2,26.2c-8.3,0-15.5-4.2-20.2-10.1l1.2,17.3
			c0,0,219.1-19,217.9-41.1C2477.6-564.2,2352-566,2290.6-565.4z"/>
	</g>
</g>
<g>
	<g>
		<path d="M-483.4,255.5L-483.4,255.5c-26.2,0-50-16.7-58.9-41.7c-11.9-32.7,5.4-68.5,37.5-80.4c7.1-2.4,14.3-3.6,21.4-3.6
			c26.2,0,50,16.7,58.9,41.7c11.9,32.7-5.4,68.5-37.5,80.4C-469.1,254.3-476.2,255.5-483.4,255.5z M-483.4,155.5
			c-4.2,0-8.3,0.6-12.5,2.4c-19,7.1-29.2,28-22,47c5.4,14.3,19,24.4,34.5,24.4l0,0c4.2,0,8.3-0.6,12.5-2.4c19-7.1,29.2-28,22-47
			C-454.2,165.6-467.9,155.5-483.4,155.5z"/>
	</g>
	<g>
		<path d="M-631,709.7c-4.2,0-8.3-1.2-12.5-3.6c-31.5-17.9-16.1-45.8-7.7-60.7c2.4-4.2,4.8-8.3,6-11.9c11.3-28.6,28-78.6,29.8-83.3
			l20.2-76.2l25,6.5l-20.2,77.4c-0.6,2.4-17.9,54.8-30.4,85.7c-1.8,4.8-4.8,10.1-7.1,14.3c-11.3,20.2-8.9,21.4-2.4,25.6
			c6-3.6,17.9-24.4,23.2-35.1c25-44.6,28-50,28-50l2.4-4.2c8.3-16.1,11.3-22,16.7-37.5l8.9-23.8l24.4,8.9l-8.9,23.8
			c-6.5,17.9-9.5,24.4-20.2,45.2l-2.4,4.2h-0.6c-3,5.4-10.1,18.5-25.6,45.8c-14.9,26.8-25,43.5-39.9,47.6
			C-626.8,709.1-628.6,709.7-631,709.7z"/>
	</g>
	<g>
		<path d="M-464.9,707.9L-464.9,707.9c-11.3,0-26.8-7.7-52.4-64.9l-0.6-1.2l-18.5-55.4l-27.4-82.1c-38.1-16.7-38.7-46.4-33.3-76.2
			l16.1-78.6l-10.7,5.4l-42.3,48.8c-1.2,1.2-2.4,3-3.6,4.2c-10.7,14.3-20.2,25.6-32.1,25.6c-3.6,0-7.1-1.2-10.1-3.6
			c-24.4-17.9,4.2-69.6,5.4-72l0.6-0.6l46.4-75c6-8.3,20.8-17.3,31-19l60.1-17.3c6-0.6,11.9,0,17.9,1.8l50.6,12.5
			c17.9,4.8,21.4,32.1,18.5,43.5l-30.4,143.5l-4.8,19c0,22,0,22.6,2.4,44.6l32.1,93.5c8.9,31.5,17.9,87.5-6,100
			C-458.4,707.3-461.9,707.9-464.9,707.9z M-493.5,633.5c12.5,27.4,20.8,39.9,25.6,45.2c1.8-10.1,1.8-32.7-7.1-64.9l-32.7-95.2v-1.8
			c-2.4-24.4-2.4-25-2.4-50V465l5.4-22l31-143.5c0.6-3,0-9.5-1.8-12.5l-50.6-12.5c-1.8-0.6-3.6-1.2-4.8-0.6l-59.5,16.7
			c-3.6,0.6-11.9,6-14.3,8.3l-45.8,73.2c-4.8,8.3-8.3,17.9-10.1,25.6c1.2-1.8,2.4-3.6,3.6-4.8c1.8-1.8,3-3.6,4.2-5.4l0.6-0.6
			l45.8-52.4l63.7-33.3l-28.6,132.2c-4.8,28-2.4,39.9,22.6,49.4l6,2.4l32.1,94.1L-493.5,633.5z"/>
	</g>
	<g>
		<path d="M-332.2,464.4c-10.1,0-23.2-4.2-40.5-9.5c-2.4-0.6-5.4-1.8-7.1-2.4c-20.8-6.5-58.3-23.8-60.1-24.4l-3-1.2l-1.8-3
			c-4.2-5.4-4.8-6.5-5.4-7.1s-0.6-0.6-6-8.3l-0.6-1.2l-0.6-1.8l-22.6-54.2l23.8-10.1l22,52.4c3,4.2,4.2,5.4,4.2,6
			c0.6,0.6,1.2,1.8,4.2,5.4c9.5,4.2,37.5,16.7,54.2,22c2.4,0.6,4.8,1.8,7.7,2.4c4.8,1.8,13.1,4.2,20.8,6.5
			c-10.7-10.1-32.1-21.4-43.5-26.8c-8.3-4.2-14.9-7.7-20.2-11.3l-2.4-1.8l-26.2-45.2l-40.5-66.1l22-13.7l41.1,66.7l23.2,40.5
			c4.2,2.4,9.5,5.4,15.5,8.3c28.6,14.9,63.7,33.3,63.7,60.1c0,6-2.4,10.7-7.1,13.7C-322,463.2-326.8,464.4-332.2,464.4z"/>
	</g>
</g>
<g>
	<g>
		<path d="M6139.1,691.2c-144.7,0-262.5-117.9-262.5-262.5s117.9-262.5,262.5-262.5c144.7,0,262.5,117.9,262.5,262.5
			C6402.2,552.5,6289.7,691.2,6139.1,691.2z M6139.1,191.2c-130.4,0-236.9,106-236.9,236.9s106,236.9,236.9,236.9
			c133.3,0,236.9-127.4,236.9-236.9C6376,297.7,6269.5,191.2,6139.1,191.2z"/>
	</g>
	<g>
		<path d="M6245.7,515c-2.4,0-5.4-0.6-7.1-2.4L6132,438.8c-3.6-2.4-5.4-6.5-5.4-10.7v-147c0-7.1,6-13.1,13.1-13.1s13.1,6,13.1,13.1
			v140.5l100.6,69.6c6,4.2,7.1,11.9,3.6,17.9C6253.4,513.2,6249.8,515,6245.7,515z"/>
	</g>
	<g>
		<path d="M6389.1,441.2h-39.3c-7.1,0-13.1-6-13.1-13.1s6-13.1,13.1-13.1h39.3c7.1,0,13.1,6,13.1,13.1S6396.3,441.2,6389.1,441.2z"
			/>
	</g>
	<g>
		<path d="M5929.6,441.2h-40.5c-7.1,0-13.1-6-13.1-13.1s6-13.1,13.1-13.1h40.5c7.1,0,13.1,6,13.1,13.1S5937.3,441.2,5929.6,441.2z"
			/>
	</g>
	<g>
		<path d="M6139.1,691.2c-7.1,0-13.1-6-13.1-13.1V637c0-7.1,6-13.1,13.1-13.1s13.1,6,13.1,13.1v41.1
			C6152.2,685.2,6146.3,691.2,6139.1,691.2z"/>
	</g>
	<g>
		<path d="M6139.1,232.2c-7.1,0-13.1-6-13.1-13.1v-40.5c0-7.1,6-13.1,13.1-13.1s13.1,6,13.1,13.1v41.1
			C6152.2,226.3,6146.3,232.2,6139.1,232.2z"/>
	</g>
</g>
<g id="Expanded_1_">
	<g>
		<g>
			<g>
				<path d="M6835,494.8c-4.2,0-7.7-1.8-10.1-4.8l-88.7-102.4c-4.8-6-4.2-14.3,1.2-19c5.4-4.8,14.3-4.2,19,1.2l76.8,88.7l63.7-98.8
					c4.2-6.5,12.5-8.3,18.5-4.2c6.5,4.2,8.3,12.5,4.2,18.5l-73.2,113.7c-2.4,3.6-6,6-10.7,6C6835.6,494.8,6835.6,494.8,6835,494.8z"
					/>
			</g>
		</g>
		<g>
			<g>
				<path d="M7363,528.1c-4.2,0-8.9-1.8-11.3-6l-65.5-97l-75,89.9c-4.8,6-13.1,6.5-19,1.8c-6-4.8-6.5-13.1-1.8-19l86.9-103.6
					c3-3.6,6.5-5.4,11.3-4.8c4.2,0,8.3,2.4,10.7,6l75.6,112.5c4.2,6,2.4,14.9-3.6,19C7367.8,527.5,7365.4,528.1,7363,528.1z"/>
			</g>
		</g>
		<g>
			<g>
				<path d="M7058.2,671.6c-63.1,0-124.4-24.4-170.8-70.2c-5.4-5.4-5.4-13.7,0-19c5.4-5.4,13.7-5.4,19,0
					c53.6,53,129.2,73.8,201.8,56.6c106.6-25,178-126.2,165.5-235.1c-0.6-7.1,4.8-14.3,11.9-14.9c7.7-1.2,14.3,4.8,14.9,11.9
					c14.3,122.6-66.1,235.7-185.7,264.3C7096.3,669.8,7077.3,671.6,7058.2,671.6z"/>
			</g>
		</g>
		<g>
			<g>
				<path d="M6835,494.8c-6,0-11.9-4.2-13.1-10.7c-14.9-63.1-4.2-128.6,29.8-183.9s88.1-94.1,151.2-108.9
					c87.5-20.8,178.6,8.3,238.7,75.6c4.8,5.4,4.2,14.3-1.2,19c-5.4,4.8-14.3,4.2-19-1.2c-53-60.1-134.5-85.7-211.9-67.3
					c-56,13.1-104.2,47.6-134.5,97c-30.4,49.4-39.9,107.2-26.2,163.7c1.8,7.1-3,14.9-10.1,16.1
					C6837.4,494.8,6836.2,494.8,6835,494.8z"/>
			</g>
		</g>
	</g>
</g>
<g>
	<g>
		<path d="M5284.9,626.9c-101.8,0-211.9-22-211.9-70.2v-5.4l40.5-37.5V374.5c0-107.2,71.4-185.1,169.7-185.1s169.7,78,169.7,185.1
			v138.7l44.6,37.5v6C5496.8,604.9,5387.3,626.9,5284.9,626.9z M5101,561.4c10.1,15.5,74.4,39.9,184.5,39.9
			c108.9,0,173.2-23.8,183.9-39.3l-42.9-36.3V374.5c0-92.3-60.1-158.9-143.5-158.9c-83.3,0-143.5,66.7-143.5,158.9v150.6L5101,561.4
			z"/>
	</g>
	<g>
		<path d="M5333.7,638.8c0,21.4-22.6,39.3-51.2,39.3c-28,0-51.2-17.3-51.2-39.3H5333.7z"/>
		<path d="M5283.1,680.5c-29.8,0-53.6-18.5-53.6-41.7v-2.4h107.2v2.4C5336.7,662,5312.3,680.5,5283.1,680.5z M5234.9,641.8
			c1.8,19,22.6,33.9,48.2,33.9c25.6,0,46.4-14.9,48.2-33.9H5234.9z"/>
	</g>
	<g>
		<path d="M5303.4,202.5v-20.2c0-10.1-8.9-18.5-20.8-18.5c-11.3,0-20.8,8.3-20.8,18.5v20.8"/>
		<path d="M5306.3,202.5h-5.4v-20.2c0-8.9-8.3-16.1-17.9-16.1c-10.1,0-17.9,7.1-17.9,16.1v20.8h-5.4v-20.8
			c0-11.3,10.1-20.8,23.2-20.8c12.5,0,23.2,9.5,23.2,20.8V202.5L5306.3,202.5z"/>
	</g>
</g>
<path id="iPad" fill="#F26521" d="M395.7,219.1H194.8c-14.5,0-26.3,10.1-26.3,22.4v223.9c0,12.3,11.9,22.8,26.3,22.8h200.9
	c14.5,0,26.3-10.5,26.3-22.8V241.5C422.1,229.2,410.2,219.1,395.7,219.1 M292.6,478.8c-8.7,0-15.8-6-15.8-13.4
	c0-7.4,7.1-13.4,15.8-13.4c8.7,0,15.8,6,15.8,13.4C308.4,472.8,301.3,478.8,292.6,478.8 M403.1,439.8H187.5V235.2h215.6V439.8z"/>
</svg>
