<?xml version="1.0" encoding="utf-8"?>
<!-- Generator: Adobe Illustrator 16.2.1, SVG Export Plug-In . SVG Version: 6.00 Build 0)  -->
<!DOCTYPE svg PUBLIC "-//W3C//DTD SVG 1.1//EN" "http://www.w3.org/Graphics/SVG/1.1/DTD/svg11.dtd">
<svg version="1.1" xmlns="http://www.w3.org/2000/svg" xmlns:xlink="http://www.w3.org/1999/xlink" x="0px" y="0px" width="122px"
	 height="244px" viewBox="0 0 122 244" enable-background="new 0 0 122 244" xml:space="preserve">
<g id="Layer_2">
</g>
<g id="tw" display="none">
	<g display="inline">
		<g>
			<path fill-rule="evenodd" clip-rule="evenodd" fill="#9B9B9B" d="M30.453,83.868c7.239,0.664,13.594-1.106,19.415-5.467
				c-3.77-0.228-6.844-1.566-9.332-4.173c-1.399-1.464-2.667-3.653-2.857-4.968c1.846,0.245,3.677,0.283,5.508-0.268
				c-2.968-0.812-5.47-2.33-7.384-4.742c-1.907-2.404-2.833-5.154-2.878-8.341c1.858,0.926,3.727,1.524,5.926,1.615
				c-3.496-2.585-5.45-5.882-5.77-10.06c-0.203-2.654,0.371-5.153,1.74-7.508c7.152,8.392,16.142,12.999,27.192,13.763
				c-0.396-1.943-0.471-3.76-0.07-5.572c1.108-4.996,4.067-8.429,8.926-9.988c4.835-1.552,9.227-0.48,13.002,2.918
				c0.519,0.468,0.938,0.569,1.582,0.404c2.438-0.621,4.767-1.507,6.959-2.742c0.083-0.046,0.172-0.078,0.422-0.194
				c-1.026,3.088-2.892,5.331-5.422,7.104c2.447-0.216,4.757-0.925,7.017-1.845c0.045,0.06,0.091,0.117,0.137,0.176
				c-0.989,1.165-1.927,2.379-2.983,3.48c-0.896,0.936-1.903,1.771-2.912,2.587c-0.421,0.339-0.574,0.659-0.572,1.2
				c0.028,11.545-4.109,21.338-12.568,29.2c-5.488,5.099-12.079,7.965-19.496,8.944c-8.801,1.162-17.051-0.431-24.709-4.96
				C31.083,84.291,30.854,84.13,30.453,83.868z"/>
		</g>
	</g>
	<g display="inline">
		<g>
			<path fill-rule="evenodd" clip-rule="evenodd" fill="#FFFFFF" d="M29.944,206.368c7.239,0.664,13.594-1.106,19.415-5.467
				c-3.77-0.228-6.844-1.566-9.332-4.173c-1.399-1.464-2.667-3.653-2.857-4.968c1.846,0.245,3.677,0.283,5.508-0.268
				c-2.968-0.812-5.47-2.33-7.384-4.742c-1.907-2.404-2.833-5.154-2.878-8.341c1.858,0.926,3.727,1.524,5.926,1.615
				c-3.496-2.585-5.45-5.882-5.77-10.06c-0.203-2.654,0.371-5.153,1.74-7.508c7.152,8.392,16.142,12.999,27.192,13.763
				c-0.396-1.943-0.471-3.76-0.07-5.572c1.108-4.996,4.067-8.429,8.926-9.988c4.835-1.552,9.227-0.48,13.002,2.918
				c0.519,0.468,0.938,0.569,1.582,0.404c2.438-0.621,4.767-1.507,6.959-2.742c0.083-0.046,0.172-0.078,0.422-0.194
				c-1.026,3.088-2.892,5.331-5.422,7.104c2.447-0.216,4.757-0.925,7.017-1.845c0.045,0.06,0.091,0.117,0.137,0.176
				c-0.989,1.165-1.927,2.379-2.983,3.48c-0.896,0.936-1.903,1.771-2.912,2.587c-0.421,0.339-0.574,0.659-0.572,1.2
				c0.028,11.545-4.109,21.338-12.568,29.2c-5.488,5.099-12.079,7.965-19.496,8.944c-8.801,1.162-17.051-0.431-24.709-4.96
				C30.575,206.791,30.346,206.63,29.944,206.368z"/>
		</g>
	</g>
</g>
<g id="Layer_3">
	<g id="_x23_020201ff">
		<path fill="#9B9B9B" d="M54.639,35.087c2.248-2.141,5.445-2.863,8.461-2.953c3.188-0.029,6.379-0.011,9.568-0.01
			c0.013,3.365,0.013,6.731-0.002,10.096c-2.061-0.003-4.124,0.005-6.185-0.003c-1.308-0.082-2.649,0.909-2.888,2.205
			c-0.031,2.251-0.011,4.504-0.01,6.756c3.023,0.012,6.046-0.004,9.069,0.007c-0.221,3.257-0.625,6.5-1.1,9.729
			c-2.669,0.025-5.342-0.003-8.013,0.013c-0.023,9.607,0.013,19.213-0.018,28.82c-3.967,0.017-7.936-0.007-11.903,0.011
			c-0.075-9.608,0.006-19.221-0.042-28.829c-1.935-0.021-3.871,0.013-5.806-0.017c0.007-3.23,0.002-6.459,0.003-9.688
			c1.934-0.023,3.869,0.005,5.803-0.013c0.059-3.14-0.059-6.284,0.062-9.42C51.834,39.306,52.781,36.803,54.639,35.087z"/>
	</g>
	<g id="_x23_020201ff_1_">
		<path fill="#FFFFFF" d="M55.922,157.261c2.248-2.141,5.445-2.863,8.461-2.953c3.188-0.028,6.379-0.011,9.568-0.011
			c0.013,3.365,0.013,6.731-0.002,10.096c-2.061-0.003-4.124,0.006-6.185-0.003c-1.308-0.081-2.649,0.909-2.888,2.204
			c-0.031,2.252-0.011,4.505-0.01,6.757c3.023,0.013,6.046-0.004,9.069,0.007c-0.221,3.258-0.625,6.5-1.1,9.73
			c-2.669,0.024-5.342-0.004-8.013,0.013c-0.023,9.606,0.013,19.214-0.018,28.819c-3.967,0.018-7.936-0.007-11.903,0.012
			c-0.075-9.607,0.006-19.221-0.042-28.829c-1.935-0.021-3.871,0.013-5.806-0.017c0.007-3.23,0.002-6.459,0.003-9.688
			c1.934-0.023,3.869,0.004,5.803-0.014c0.059-3.141-0.059-6.283,0.062-9.42C53.118,161.479,54.064,158.977,55.922,157.261z"/>
	</g>
</g>
<g id="Layer_4" display="none">
	<g display="inline">
		<path fill-rule="evenodd" clip-rule="evenodd" fill="#9B9B9B" d="M57.125,71.353c-0.561,2.188-1.185,4.295-1.633,6.439
			c-0.977,4.675-3.195,8.728-6.045,12.48c-0.249,0.327-0.645,0.795-0.944,0.776c-0.583-0.039-0.392-0.7-0.45-1.097
			c-0.713-4.887-0.423-9.698,0.847-14.493c1.274-4.809,2.323-9.678,3.448-14.526c0.069-0.299-0.01-0.666-0.116-0.968
			c-0.997-2.886-1.172-5.776-0.083-8.676c0.476-1.267,1.207-2.368,2.267-3.226c0.949-0.767,2.025-1.203,3.258-1.212
			c2.346-0.019,3.995,1.406,4.374,3.736c0.287,1.765-0.119,3.448-0.581,5.116c-0.665,2.397-1.373,4.783-2.091,7.165
			c-1.326,4.391,2.404,7.68,6.709,6.607c1.86-0.463,3.306-1.558,4.5-3.01c1.753-2.133,2.766-4.621,3.398-7.276
			c0.708-2.977,1.102-5.999,0.64-9.043c-0.816-5.377-4.001-8.706-9.24-9.914c-5.059-1.167-9.879-0.479-14.163,2.651
			c-5.43,3.969-6.97,10.868-5.792,15.49c0.33,1.29,0.921,2.452,1.802,3.447c0.527,0.597,0.678,1.214,0.438,1.98
			c-0.241,0.763-0.393,1.553-0.598,2.328c-0.272,1.027-0.872,1.319-1.858,0.886c-2.884-1.262-4.66-3.539-5.582-6.453
			c-2.004-6.338-0.851-12.197,3.066-17.489c3.569-4.824,8.5-7.482,14.345-8.493c4.198-0.726,8.388-0.675,12.448,0.751
			c6.681,2.346,11.147,6.823,12.88,13.799c0.705,2.837,0.493,5.709,0.073,8.562c-0.595,4.026-1.914,7.783-4.401,11.053
			c-3.214,4.225-7.461,6.542-12.806,6.568C61.968,75.325,59.183,74.136,57.125,71.353z"/>
	</g>
	<g display="inline">
		<path fill-rule="evenodd" clip-rule="evenodd" fill="#FFFFFF" d="M57.379,190c-0.561,2.188-1.185,4.295-1.633,6.439
			c-0.977,4.675-3.195,8.728-6.045,12.48c-0.249,0.326-0.645,0.795-0.944,0.775c-0.583-0.039-0.392-0.699-0.45-1.097
			c-0.713-4.888-0.423-9.698,0.847-14.493c1.274-4.809,2.323-9.678,3.448-14.526c0.069-0.3-0.01-0.665-0.116-0.968
			c-0.997-2.886-1.172-5.776-0.083-8.676c0.476-1.268,1.207-2.368,2.267-3.227c0.949-0.766,2.025-1.203,3.258-1.212
			c2.346-0.019,3.995,1.405,4.374,3.735c0.287,1.766-0.119,3.448-0.582,5.116c-0.665,2.397-1.373,4.782-2.091,7.165
			c-1.326,4.391,2.405,7.68,6.709,6.606c1.859-0.463,3.305-1.558,4.5-3.011c1.752-2.133,2.766-4.621,3.398-7.275
			c0.707-2.978,1.102-5.999,0.639-9.043c-0.816-5.378-4-8.706-9.24-9.914c-5.058-1.166-9.878-0.479-14.163,2.65
			c-5.43,3.969-6.97,10.869-5.792,15.49c0.33,1.291,0.921,2.452,1.802,3.447c0.527,0.597,0.678,1.214,0.438,1.98
			c-0.241,0.763-0.393,1.553-0.598,2.328c-0.272,1.027-0.872,1.318-1.858,0.886c-2.884-1.263-4.66-3.539-5.582-6.453
			c-2.004-6.338-0.851-12.196,3.066-17.489c3.569-4.823,8.5-7.481,14.345-8.492c4.198-0.727,8.389-0.675,12.447,0.751
			c6.682,2.346,11.148,6.823,12.881,13.799c0.705,2.837,0.492,5.709,0.072,8.562c-0.594,4.026-1.914,7.783-4.4,11.053
			c-3.215,4.225-7.461,6.541-12.807,6.568C62.221,193.973,59.436,192.783,57.379,190z"/>
	</g>
</g>
</svg>
