<?xml version="1.0" encoding="utf-8"?>
<!-- Generator: Adobe Illustrator 16.2.1, SVG Export Plug-In . SVG Version: 6.00 Build 0)  -->
<!DOCTYPE svg PUBLIC "-//W3C//DTD SVG 1.1//EN" "http://www.w3.org/Graphics/SVG/1.1/DTD/svg11.dtd">
<svg version="1.1" xmlns="http://www.w3.org/2000/svg" xmlns:xlink="http://www.w3.org/1999/xlink" x="0px" y="0px" width="122px"
	 height="244px" viewBox="0 0 122 244" enable-background="new 0 0 122 244" xml:space="preserve">
<g id="Layer_2">
</g>
<g id="tw" display="none">
	<g display="inline">
		<g>
			<path fill-rule="evenodd" clip-rule="evenodd" fill="#9B9B9B" d="M30.453,83.868c7.239,0.664,13.594-1.106,19.415-5.467
				c-3.77-0.228-6.844-1.566-9.332-4.173c-1.399-1.464-2.667-3.653-2.857-4.968c1.846,0.245,3.677,0.283,5.508-0.268
				c-2.968-0.812-5.47-2.33-7.384-4.742c-1.907-2.404-2.833-5.154-2.878-8.341c1.858,0.926,3.727,1.524,5.926,1.615
				c-3.496-2.585-5.45-5.882-5.77-10.06c-0.203-2.654,0.371-5.153,1.74-7.508c7.152,8.392,16.142,12.999,27.192,13.763
				c-0.396-1.943-0.471-3.76-0.07-5.572c1.108-4.996,4.067-8.429,8.926-9.988c4.835-1.552,9.227-0.48,13.002,2.918
				c0.519,0.468,0.938,0.569,1.582,0.404c2.438-0.621,4.767-1.507,6.959-2.742c0.083-0.046,0.172-0.078,0.422-0.194
				c-1.026,3.088-2.892,5.331-5.422,7.104c2.447-0.216,4.757-0.925,7.017-1.845c0.045,0.06,0.091,0.117,0.137,0.176
				c-0.989,1.165-1.927,2.379-2.983,3.48c-0.896,0.936-1.903,1.771-2.912,2.587c-0.421,0.339-0.574,0.659-0.572,1.2
				c0.028,11.545-4.109,21.338-12.568,29.2c-5.488,5.099-12.079,7.965-19.496,8.944c-8.801,1.162-17.051-0.431-24.709-4.96
				C31.083,84.291,30.854,84.13,30.453,83.868z"/>
		</g>
	</g>
	<g display="inline">
		<g>
			<path fill-rule="evenodd" clip-rule="evenodd" fill="#FFFFFF" d="M29.944,206.368c7.239,0.664,13.594-1.106,19.415-5.467
				c-3.77-0.228-6.844-1.566-9.332-4.173c-1.399-1.464-2.667-3.653-2.857-4.968c1.846,0.245,3.677,0.283,5.508-0.268
				c-2.968-0.812-5.47-2.33-7.384-4.742c-1.907-2.404-2.833-5.154-2.878-8.341c1.858,0.926,3.727,1.524,5.926,1.615
				c-3.496-2.585-5.45-5.882-5.77-10.06c-0.203-2.654,0.371-5.153,1.74-7.508c7.152,8.392,16.142,12.999,27.192,13.763
				c-0.396-1.943-0.471-3.76-0.07-5.572c1.108-4.996,4.067-8.429,8.926-9.988c4.835-1.552,9.227-0.48,13.002,2.918
				c0.519,0.468,0.938,0.569,1.582,0.404c2.438-0.621,4.767-1.507,6.959-2.742c0.083-0.046,0.172-0.078,0.422-0.194
				c-1.026,3.088-2.892,5.331-5.422,7.104c2.447-0.216,4.757-0.925,7.017-1.845c0.045,0.06,0.091,0.117,0.137,0.176
				c-0.989,1.165-1.927,2.379-2.983,3.48c-0.896,0.936-1.903,1.771-2.912,2.587c-0.421,0.339-0.574,0.659-0.572,1.2
				c0.028,11.545-4.109,21.338-12.568,29.2c-5.488,5.099-12.079,7.965-19.496,8.944c-8.801,1.162-17.051-0.431-24.709-4.96
				C30.575,206.791,30.346,206.63,29.944,206.368z"/>
		</g>
	</g>
</g>
<g id="Layer_3" display="none">
	<g id="_x23_020201ff" display="inline">
		<path fill="#9B9B9B" d="M54.639,35.087c2.248-2.141,5.445-2.863,8.461-2.953c3.188-0.029,6.379-0.011,9.568-0.01
			c0.013,3.365,0.013,6.731-0.002,10.096c-2.061-0.003-4.124,0.005-6.185-0.003c-1.308-0.082-2.649,0.909-2.888,2.205
			c-0.031,2.251-0.011,4.504-0.01,6.756c3.023,0.012,6.046-0.004,9.069,0.007c-0.221,3.257-0.625,6.5-1.1,9.729
			c-2.669,0.025-5.342-0.003-8.013,0.013c-0.023,9.607,0.013,19.213-0.018,28.82c-3.967,0.017-7.936-0.007-11.903,0.011
			c-0.075-9.608,0.006-19.221-0.042-28.829c-1.935-0.021-3.871,0.013-5.806-0.017c0.007-3.23,0.002-6.459,0.003-9.688
			c1.934-0.023,3.869,0.005,5.803-0.013c0.059-3.14-0.059-6.284,0.062-9.42C51.834,39.306,52.781,36.803,54.639,35.087z"/>
	</g>
	<g id="_x23_020201ff_1_" display="inline">
		<path fill="#FFFFFF" d="M55.922,157.261c2.248-2.141,5.445-2.863,8.461-2.953c3.188-0.028,6.379-0.011,9.568-0.011
			c0.013,3.365,0.013,6.731-0.002,10.096c-2.061-0.003-4.124,0.006-6.185-0.003c-1.308-0.081-2.649,0.909-2.888,2.204
			c-0.031,2.252-0.011,4.505-0.01,6.757c3.023,0.013,6.046-0.004,9.069,0.007c-0.221,3.258-0.625,6.5-1.1,9.73
			c-2.669,0.024-5.342-0.004-8.013,0.013c-0.023,9.606,0.013,19.214-0.018,28.819c-3.967,0.018-7.936-0.007-11.903,0.012
			c-0.075-9.607,0.006-19.221-0.042-28.829c-1.935-0.021-3.871,0.013-5.806-0.017c0.007-3.23,0.002-6.459,0.003-9.688
			c1.934-0.023,3.869,0.004,5.803-0.014c0.059-3.141-0.059-6.283,0.062-9.42C53.118,161.479,54.064,158.977,55.922,157.261z"/>
	</g>
</g>
<g id="Layer_4" display="none">
	<g display="inline">
		<path fill-rule="evenodd" clip-rule="evenodd" fill="#9B9B9B" d="M57.125,71.353c-0.561,2.188-1.185,4.295-1.633,6.439
			c-0.977,4.675-3.195,8.728-6.045,12.48c-0.249,0.327-0.645,0.795-0.944,0.776c-0.583-0.039-0.392-0.7-0.45-1.097
			c-0.713-4.887-0.423-9.698,0.847-14.493c1.274-4.809,2.323-9.678,3.448-14.526c0.069-0.299-0.01-0.666-0.116-0.968
			c-0.997-2.886-1.172-5.776-0.083-8.676c0.476-1.267,1.207-2.368,2.267-3.226c0.949-0.767,2.025-1.203,3.258-1.212
			c2.346-0.019,3.995,1.406,4.374,3.736c0.287,1.765-0.119,3.448-0.581,5.116c-0.665,2.397-1.373,4.783-2.091,7.165
			c-1.326,4.391,2.404,7.68,6.709,6.607c1.86-0.463,3.306-1.558,4.5-3.01c1.753-2.133,2.766-4.621,3.398-7.276
			c0.708-2.977,1.102-5.999,0.64-9.043c-0.816-5.377-4.001-8.706-9.24-9.914c-5.059-1.167-9.879-0.479-14.163,2.651
			c-5.43,3.969-6.97,10.868-5.792,15.49c0.33,1.29,0.921,2.452,1.802,3.447c0.527,0.597,0.678,1.214,0.438,1.98
			c-0.241,0.763-0.393,1.553-0.598,2.328c-0.272,1.027-0.872,1.319-1.858,0.886c-2.884-1.262-4.66-3.539-5.582-6.453
			c-2.004-6.338-0.851-12.197,3.066-17.489c3.569-4.824,8.5-7.482,14.345-8.493c4.198-0.726,8.388-0.675,12.448,0.751
			c6.681,2.346,11.147,6.823,12.88,13.799c0.705,2.837,0.493,5.709,0.073,8.562c-0.595,4.026-1.914,7.783-4.401,11.053
			c-3.214,4.225-7.461,6.542-12.806,6.568C61.968,75.325,59.183,74.136,57.125,71.353z"/>
	</g>
	<g display="inline">
		<path fill-rule="evenodd" clip-rule="evenodd" fill="#FFFFFF" d="M57.379,190c-0.561,2.188-1.185,4.295-1.633,6.439
			c-0.977,4.675-3.195,8.728-6.045,12.48c-0.249,0.326-0.645,0.795-0.944,0.775c-0.583-0.039-0.392-0.699-0.45-1.097
			c-0.713-4.888-0.423-9.698,0.847-14.493c1.274-4.809,2.323-9.678,3.448-14.526c0.069-0.3-0.01-0.665-0.116-0.968
			c-0.997-2.886-1.172-5.776-0.083-8.676c0.476-1.268,1.207-2.368,2.267-3.227c0.949-0.766,2.025-1.203,3.258-1.212
			c2.346-0.019,3.995,1.405,4.374,3.735c0.287,1.766-0.119,3.448-0.582,5.116c-0.665,2.397-1.373,4.782-2.091,7.165
			c-1.326,4.391,2.405,7.68,6.709,6.606c1.859-0.463,3.305-1.558,4.5-3.011c1.752-2.133,2.766-4.621,3.398-7.275
			c0.707-2.978,1.102-5.999,0.639-9.043c-0.816-5.378-4-8.706-9.24-9.914c-5.058-1.166-9.878-0.479-14.163,2.65
			c-5.43,3.969-6.97,10.869-5.792,15.49c0.33,1.291,0.921,2.452,1.802,3.447c0.527,0.597,0.678,1.214,0.438,1.98
			c-0.241,0.763-0.393,1.553-0.598,2.328c-0.272,1.027-0.872,1.318-1.858,0.886c-2.884-1.263-4.66-3.539-5.582-6.453
			c-2.004-6.338-0.851-12.196,3.066-17.489c3.569-4.823,8.5-7.481,14.345-8.492c4.198-0.727,8.389-0.675,12.447,0.751
			c6.682,2.346,11.148,6.823,12.881,13.799c0.705,2.837,0.492,5.709,0.072,8.562c-0.594,4.026-1.914,7.783-4.4,11.053
			c-3.215,4.225-7.461,6.541-12.807,6.568C62.221,193.973,59.436,192.783,57.379,190z"/>
	</g>
</g>
<g id="Layer_5" display="none">
	<g display="inline">
		<g>
			<polygon fill="#9B9B9B" points="43.021,31.641 46.58,31.641 48.875,39.962 49.096,39.962 51.279,31.641 54.871,31.641 
				50.759,43.822 50.759,52.46 47.227,52.46 47.227,44.211 			"/>
			<path fill="#9B9B9B" d="M55.124,40.614c0-1.192,0.422-2.139,1.27-2.843c0.844-0.706,1.982-1.058,3.405-1.058
				c1.297,0,2.362,0.372,3.193,1.116c0.826,0.743,1.242,1.701,1.242,2.872v7.935c0,1.313-0.406,2.342-1.217,3.09
				c-0.818,0.747-1.936,1.123-3.363,1.123c-1.37,0-2.47-0.388-3.295-1.156c-0.818-0.773-1.235-1.812-1.235-3.117V40.614
				L55.124,40.614z M58.354,48.865c0,0.421,0.115,0.744,0.338,0.977c0.222,0.231,0.541,0.346,0.957,0.346
				c0.424,0,0.76-0.119,1.012-0.351c0.252-0.237,0.377-0.562,0.377-0.971v-8.368c0-0.336-0.13-0.606-0.386-0.814
				c-0.257-0.206-0.591-0.309-1.003-0.309c-0.385,0-0.694,0.103-0.935,0.309c-0.237,0.208-0.36,0.478-0.36,0.814V48.865
				L58.354,48.865z"/>
			<path fill="#9B9B9B" d="M75.733,37.101V52.46h-3.139v-1.696c-0.572,0.624-1.176,1.104-1.805,1.429
				c-0.625,0.327-1.231,0.489-1.82,0.489c-0.731,0-1.271-0.229-1.641-0.686c-0.366-0.458-0.55-1.143-0.55-2.058V37.101h3.132v11.775
				c0,0.364,0.072,0.627,0.204,0.79c0.128,0.163,0.344,0.246,0.638,0.246c0.229,0,0.521-0.109,0.875-0.323
				c0.351-0.216,0.676-0.491,0.966-0.829V37.101H75.733z"/>
		</g>
		<g>
			<path fill="#9B9B9B" d="M66.135,71.394c-0.199,0-0.396,0.042-0.591,0.135c-0.193,0.092-0.384,0.233-0.575,0.425v8.688
				c0.225,0.225,0.447,0.395,0.663,0.493c0.212,0.098,0.436,0.151,0.672,0.151c0.342,0,0.592-0.098,0.751-0.298
				c0.16-0.195,0.243-0.512,0.243-0.96v-7.201c0-0.47-0.097-0.828-0.293-1.072C66.801,71.515,66.51,71.394,66.135,71.394z"/>
			<path fill="#9B9B9B" d="M75.746,71.444c-0.444,0-0.763,0.124-0.957,0.384c-0.194,0.244-0.287,0.666-0.287,1.249v1.409h2.463
				v-1.409c0-0.583-0.1-1.004-0.294-1.249C76.483,71.567,76.168,71.444,75.746,71.444z"/>
			<path fill="#9B9B9B" d="M82.102,60.587c-2.288-2.249-21.578-2.279-21.578-2.278c0-0.001-19.287,0.029-21.581,2.278
				c-2.295,2.252-2.302,13.373-2.302,13.437v0.021c0,0.064,0.006,11.166,2.302,13.418c2.294,2.248,21.581,2.296,21.581,2.296
				s19.29-0.049,21.578-2.296c2.305-2.26,2.322-13.439,2.322-13.439C84.424,73.96,84.4,62.84,82.102,60.587z M50.873,67.139h-3.249
				v16.155h-3.143V67.139h-3.248v-2.745h9.639V67.139L50.873,67.139z M60.058,83.294h-2.786v-1.533
				c-0.518,0.569-1.05,0.999-1.61,1.293c-0.556,0.3-1.094,0.443-1.62,0.443c-0.647,0-1.125-0.203-1.457-0.622
				c-0.322-0.418-0.487-1.035-0.487-1.868V69.349h2.786v10.695c0,0.331,0.059,0.569,0.172,0.715
				c0.122,0.151,0.313,0.222,0.573,0.222c0.202,0,0.466-0.098,0.778-0.293c0.315-0.197,0.6-0.444,0.865-0.746V69.349h2.786V83.294
				L60.058,83.294z M70.168,80.413c0,0.987-0.219,1.743-0.655,2.27c-0.436,0.528-1.07,0.788-1.896,0.788
				c-0.547,0-1.032-0.098-1.457-0.302c-0.425-0.203-0.829-0.516-1.191-0.944v1.069h-2.816v-18.9h2.816v6.085
				c0.379-0.422,0.776-0.749,1.195-0.967c0.424-0.222,0.853-0.331,1.284-0.331c0.885,0,1.558,0.296,2.021,0.888
				c0.468,0.596,0.699,1.466,0.699,2.607V80.413L70.168,80.413z M79.831,76.656h-5.329v2.627c0,0.735,0.09,1.242,0.271,1.529
				c0.188,0.283,0.5,0.422,0.944,0.422c0.462,0,0.784-0.12,0.968-0.361c0.182-0.24,0.279-0.769,0.279-1.59v-0.636h2.866v0.716
				c0,1.43-0.348,2.507-1.05,3.234c-0.694,0.719-1.738,1.077-3.127,1.077c-1.247,0-2.231-0.38-2.947-1.148
				c-0.717-0.765-1.079-1.818-1.079-3.162v-6.262c0-1.206,0.397-2.196,1.185-2.956c0.788-0.761,1.801-1.142,3.052-1.142
				c1.275,0,2.257,0.354,2.941,1.058c0.685,0.704,1.025,1.716,1.025,3.04V76.656L79.831,76.656L79.831,76.656z"/>
		</g>
	</g>
	<g display="inline">
		<g>
			<polygon fill="#FFFFFF" points="43.021,148.641 46.58,148.641 48.875,156.963 49.096,156.963 51.279,148.641 54.871,148.641 
				50.759,160.822 50.759,169.46 47.227,169.46 47.227,161.211 			"/>
			<path fill="#FFFFFF" d="M55.124,157.614c0-1.192,0.422-2.14,1.27-2.843c0.844-0.706,1.982-1.059,3.405-1.059
				c1.297,0,2.362,0.372,3.193,1.115c0.826,0.743,1.242,1.701,1.242,2.872v7.935c0,1.314-0.406,2.342-1.217,3.091
				c-0.818,0.747-1.936,1.122-3.363,1.122c-1.37,0-2.47-0.388-3.295-1.156c-0.818-0.772-1.235-1.812-1.235-3.117V157.614
				L55.124,157.614z M58.354,165.865c0,0.42,0.115,0.744,0.338,0.977c0.222,0.23,0.541,0.346,0.957,0.346
				c0.424,0,0.76-0.119,1.012-0.352c0.252-0.237,0.377-0.562,0.377-0.971v-8.368c0-0.336-0.13-0.606-0.386-0.813
				c-0.257-0.207-0.591-0.309-1.003-0.309c-0.385,0-0.694,0.102-0.935,0.309c-0.237,0.207-0.36,0.478-0.36,0.813V165.865
				L58.354,165.865z"/>
			<path fill="#FFFFFF" d="M75.733,154.101v15.359h-3.139v-1.696c-0.572,0.624-1.176,1.104-1.805,1.43
				c-0.625,0.326-1.231,0.488-1.82,0.488c-0.731,0-1.271-0.229-1.641-0.686c-0.366-0.458-0.55-1.143-0.55-2.059v-12.837h3.132
				v11.774c0,0.365,0.072,0.628,0.204,0.791c0.128,0.162,0.344,0.245,0.638,0.245c0.229,0,0.521-0.109,0.875-0.323
				c0.351-0.217,0.676-0.491,0.966-0.829v-11.658H75.733z"/>
		</g>
		<g>
			<path fill="#FFFFFF" d="M66.135,188.395c-0.199,0-0.396,0.041-0.591,0.135c-0.193,0.092-0.384,0.233-0.575,0.426v8.688
				c0.225,0.226,0.447,0.396,0.663,0.493c0.212,0.098,0.436,0.151,0.672,0.151c0.342,0,0.592-0.098,0.751-0.299
				c0.16-0.195,0.243-0.512,0.243-0.959v-7.201c0-0.471-0.097-0.828-0.293-1.072C66.801,188.516,66.51,188.395,66.135,188.395z"/>
			<path fill="#FFFFFF" d="M75.746,188.443c-0.444,0-0.763,0.124-0.957,0.385c-0.194,0.244-0.287,0.666-0.287,1.249v1.409h2.463
				v-1.409c0-0.583-0.1-1.005-0.294-1.249C76.483,188.567,76.168,188.443,75.746,188.443z"/>
			<path fill="#FFFFFF" d="M82.102,177.588c-2.288-2.25-21.578-2.279-21.578-2.278c0-0.001-19.287,0.028-21.581,2.278
				c-2.295,2.252-2.302,13.373-2.302,13.437v0.021c0,0.064,0.006,11.166,2.302,13.418c2.294,2.248,21.581,2.297,21.581,2.297
				s19.29-0.049,21.578-2.297c2.305-2.26,2.322-13.438,2.322-13.438C84.424,190.961,84.4,179.84,82.102,177.588z M50.873,184.139
				h-3.249v16.155h-3.143v-16.155h-3.248v-2.745h9.639V184.139L50.873,184.139z M60.058,200.294h-2.786v-1.533
				c-0.518,0.569-1.05,0.999-1.61,1.293c-0.556,0.3-1.094,0.443-1.62,0.443c-0.647,0-1.125-0.203-1.457-0.622
				c-0.322-0.418-0.487-1.035-0.487-1.867V186.35h2.786v10.695c0,0.33,0.059,0.568,0.172,0.715c0.122,0.15,0.313,0.223,0.573,0.223
				c0.202,0,0.466-0.099,0.778-0.294c0.315-0.197,0.6-0.444,0.865-0.745V186.35h2.786V200.294L60.058,200.294z M70.168,197.413
				c0,0.987-0.219,1.743-0.655,2.271c-0.436,0.527-1.07,0.787-1.896,0.787c-0.547,0-1.032-0.098-1.457-0.302
				c-0.425-0.202-0.829-0.516-1.191-0.944v1.069h-2.816v-18.9h2.816v6.085c0.379-0.422,0.776-0.748,1.195-0.967
				c0.424-0.223,0.853-0.331,1.284-0.331c0.885,0,1.558,0.296,2.021,0.888c0.468,0.596,0.699,1.467,0.699,2.607V197.413
				L70.168,197.413z M79.831,193.656h-5.329v2.627c0,0.734,0.09,1.242,0.271,1.529c0.188,0.282,0.5,0.422,0.944,0.422
				c0.462,0,0.784-0.121,0.968-0.361c0.182-0.24,0.279-0.77,0.279-1.59v-0.637h2.866v0.717c0,1.43-0.348,2.507-1.05,3.234
				c-0.694,0.719-1.738,1.076-3.127,1.076c-1.247,0-2.231-0.38-2.947-1.148c-0.717-0.765-1.079-1.818-1.079-3.162v-6.262
				c0-1.206,0.397-2.197,1.185-2.957c0.788-0.761,1.801-1.141,3.052-1.141c1.275,0,2.257,0.354,2.941,1.058s1.025,1.716,1.025,3.04
				V193.656L79.831,193.656L79.831,193.656z"/>
		</g>
	</g>
</g>
<g id="Layer_6">
	<g>
		<path fill="#9B9B9B" d="M72.625,51.633c3.829,8.48,2.932,15.018-2.659,19.785c-5.058,4.312-12.266,4.817-17.793,1.186
			c-3.485-2.288-5.669-5.498-6.479-9.604c-0.801-4.073,0.099-7.835,2.307-11.338c-5.684,0-11.189,0-16.763,0
			c0,0.589,0,1.059,0,1.529c0,8.041-0.007,16.083,0.002,24.124c0.007,6.892,4.908,11.783,11.797,11.784
			c11.447,0.003,22.895,0.002,34.341,0.001c7.142-0.001,12.036-4.883,12.04-12.011c0.005-7.946,0.001-15.893,0.001-23.84
			c0-0.508,0-1.017,0-1.614C83.761,51.633,78.248,51.633,72.625,51.633z M31.088,49.729c6.263,0,12.167,0.013,18.072-0.027
			c0.402-0.002,0.856-0.34,1.194-0.63c5.856-5.024,13.878-5.055,19.718-0.115c0.518,0.437,1.326,0.738,2.003,0.746
			c5.294,0.061,10.589,0.037,15.884,0.029c0.45,0,0.9-0.065,1.46-0.109c0-2.444,0.004-4.753-0.001-7.061
			c-0.012-6.914-4.995-11.922-11.875-11.927c-9.836-0.005-19.668-0.001-29.502-0.001c-0.498,0-0.995,0-1.641,0
			c0,4.918,0,9.624,0,14.391c-0.83,0-1.508,0-2.357,0c0-4.829,0-9.577,0-14.419c-0.62,0.056-1.063,0.096-1.643,0.147
			c0,4.827,0,9.532,0,14.258c-0.83,0-1.509,0-2.326,0c0-4.701,0-9.305,0-13.9c-1.366-0.073-1.774,0.507-1.695,1.706
			c0.092,1.413,0.021,2.835,0.021,4.253c0,2.636,0,5.271,0,7.949c-0.831,0-1.507,0-2.337,0c0-4.066,0-8.046,0-12.262
			c-2.411,1.813-4.093,3.923-4.44,6.615C31.19,42.717,31.25,46.126,31.088,49.729z"/>
		<path fill-rule="evenodd" clip-rule="evenodd" fill="#9B9B9B" d="M72.625,51.633c5.623,0,11.136,0,16.794,0
			c0,0.597,0,1.105,0,1.614c0,7.947,0.004,15.894-0.001,23.84c-0.004,7.128-4.898,12.01-12.04,12.011
			c-11.446,0.001-22.894,0.002-34.341-0.001c-6.89-0.001-11.791-4.892-11.797-11.784c-0.009-8.041-0.002-16.083-0.002-24.124
			c0-0.47,0-0.94,0-1.529c5.573,0,11.079,0,16.763,0c-2.208,3.503-3.108,7.265-2.307,11.338c0.81,4.106,2.994,7.316,6.479,9.604
			c5.528,3.631,12.736,3.127,17.793-1.186C75.557,66.65,76.454,60.113,72.625,51.633z"/>
		<path fill-rule="evenodd" clip-rule="evenodd" fill="#9B9B9B" d="M31.088,49.729c0.163-3.603,0.103-7.012,0.535-10.357
			c0.348-2.692,2.03-4.802,4.44-6.615c0,4.216,0,8.196,0,12.262c0.831,0,1.506,0,2.337,0c0-2.679,0-5.313,0-7.949
			c0-1.418,0.071-2.841-0.021-4.253c-0.079-1.199,0.329-1.779,1.695-1.706c0,4.595,0,9.199,0,13.9c0.817,0,1.496,0,2.326,0
			c0-4.726,0-9.431,0-14.258c0.58-0.051,1.022-0.091,1.643-0.147c0,4.842,0,9.59,0,14.419c0.849,0,1.527,0,2.357,0
			c0-4.768,0-9.473,0-14.391c0.646,0,1.143,0,1.641,0c9.833,0,19.666-0.004,29.502,0.001c6.88,0.004,11.863,5.013,11.875,11.927
			c0.005,2.308,0.001,4.617,0.001,7.061c-0.56,0.044-1.01,0.109-1.46,0.109c-5.295,0.008-10.59,0.032-15.884-0.029
			c-0.677-0.008-1.485-0.309-2.003-0.746c-5.84-4.94-13.862-4.909-19.718,0.115c-0.338,0.29-0.792,0.627-1.194,0.63
			C43.255,49.742,37.351,49.729,31.088,49.729z M84.098,40.465c0-0.944,0.018-1.889-0.005-2.833
			c-0.032-1.426-0.656-2.13-2.036-2.164c-1.935-0.048-3.872-0.044-5.807,0c-1.291,0.03-2.002,0.757-2.019,2.062
			c-0.022,1.983-0.031,3.965,0.003,5.947c0.023,1.303,0.738,1.999,2.056,2.006c1.936,0.011,3.87,0.024,5.805-0.007
			c1.303-0.021,2.001-0.706,2.003-2.039C84.098,42.447,84.098,41.456,84.098,40.465z"/>
		<path fill-rule="evenodd" clip-rule="evenodd" fill="#9B9B9B" d="M60.318,48.705c6.326,0.012,11.476,5.167,11.452,11.468
			c-0.023,6.307-5.179,11.46-11.481,11.477c-6.379,0.018-11.538-5.184-11.484-11.577C48.858,53.698,53.928,48.693,60.318,48.705z
			 M68.75,60.228c0.023-4.686-3.746-8.523-8.406-8.555c-4.634-0.033-8.487,3.817-8.486,8.48c0.001,4.618,3.743,8.416,8.342,8.464
			C64.875,68.667,68.728,64.889,68.75,60.228z"/>
		<path fill-rule="evenodd" clip-rule="evenodd" fill="#9B9B9B" d="M84.098,40.465c0,0.991,0,1.982,0,2.974
			c-0.002,1.333-0.7,2.019-2.003,2.039c-1.935,0.031-3.869,0.018-5.805,0.007c-1.317-0.008-2.032-0.704-2.056-2.006
			c-0.034-1.982-0.025-3.964-0.003-5.947c0.017-1.305,0.728-2.032,2.019-2.062c1.935-0.044,3.872-0.048,5.807,0
			c1.38,0.034,2.004,0.737,2.036,2.164C84.115,38.576,84.098,39.521,84.098,40.465z"/>
	</g>
	<g>
		<path fill="#FFFFFF" d="M72.625,175.633c3.829,8.48,2.932,15.018-2.659,19.785c-5.058,4.312-12.266,4.816-17.793,1.186
			c-3.485-2.288-5.669-5.498-6.479-9.604c-0.801-4.074,0.099-7.836,2.307-11.339c-5.684,0-11.189,0-16.763,0c0,0.589,0,1.06,0,1.528
			c0,8.041-0.007,16.083,0.002,24.124c0.007,6.892,4.908,11.782,11.797,11.784c11.447,0.003,22.895,0.002,34.341,0
			c7.142,0,12.036-4.883,12.04-12.011c0.005-7.946,0.001-15.894,0.001-23.841c0-0.508,0-1.017,0-1.613
			C83.761,175.633,78.248,175.633,72.625,175.633z M31.088,173.729c6.263,0,12.167,0.014,18.072-0.027
			c0.402-0.002,0.856-0.34,1.194-0.629c5.856-5.025,13.878-5.056,19.718-0.115c0.518,0.437,1.326,0.737,2.003,0.745
			c5.294,0.062,10.589,0.037,15.884,0.029c0.45-0.001,0.9-0.065,1.46-0.109c0-2.444,0.004-4.753-0.001-7.061
			c-0.012-6.914-4.995-11.923-11.875-11.927c-9.836-0.005-19.668-0.001-29.502-0.001c-0.498,0-0.995,0-1.641,0
			c0,4.919,0,9.624,0,14.392c-0.83,0-1.508,0-2.357,0c0-4.83,0-9.578,0-14.42c-0.62,0.057-1.063,0.096-1.643,0.146
			c0,4.828,0,9.533,0,14.258c-0.83,0-1.509,0-2.326,0c0-4.7,0-9.305,0-13.899c-1.366-0.073-1.774,0.507-1.695,1.706
			c0.092,1.412,0.021,2.836,0.021,4.254c0,2.635,0,5.27,0,7.949c-0.831,0-1.507,0-2.337,0c0-4.066,0-8.047,0-12.263
			c-2.411,1.813-4.093,3.923-4.44,6.615C31.19,166.717,31.25,170.127,31.088,173.729z"/>
		<path fill-rule="evenodd" clip-rule="evenodd" fill="#FFFFFF" d="M72.625,175.633c5.623,0,11.136,0,16.794,0
			c0,0.597,0,1.105,0,1.613c0,7.947,0.004,15.895-0.001,23.841c-0.004,7.128-4.898,12.011-12.04,12.011
			c-11.446,0.002-22.894,0.003-34.341,0c-6.89-0.002-11.791-4.893-11.797-11.784c-0.009-8.041-0.002-16.083-0.002-24.124
			c0-0.469,0-0.939,0-1.528c5.573,0,11.079,0,16.763,0c-2.208,3.503-3.108,7.265-2.307,11.339c0.81,4.105,2.994,7.315,6.479,9.604
			c5.528,3.631,12.736,3.127,17.793-1.186C75.557,190.65,76.454,184.113,72.625,175.633z"/>
		<path fill-rule="evenodd" clip-rule="evenodd" fill="#FFFFFF" d="M31.088,173.729c0.163-3.602,0.103-7.012,0.535-10.356
			c0.348-2.692,2.03-4.802,4.44-6.615c0,4.216,0,8.196,0,12.263c0.831,0,1.506,0,2.337,0c0-2.68,0-5.314,0-7.949
			c0-1.418,0.071-2.842-0.021-4.254c-0.079-1.199,0.329-1.779,1.695-1.706c0,4.595,0,9.199,0,13.899c0.817,0,1.496,0,2.326,0
			c0-4.725,0-9.43,0-14.258c0.58-0.051,1.022-0.09,1.643-0.146c0,4.842,0,9.59,0,14.42c0.849,0,1.527,0,2.357,0
			c0-4.768,0-9.473,0-14.392c0.646,0,1.143,0,1.641,0c9.833,0,19.666-0.004,29.502,0.001c6.88,0.004,11.863,5.013,11.875,11.927
			c0.005,2.308,0.001,4.616,0.001,7.061c-0.56,0.044-1.01,0.108-1.46,0.109c-5.295,0.008-10.59,0.032-15.884-0.029
			c-0.677-0.008-1.485-0.309-2.003-0.745c-5.84-4.94-13.862-4.91-19.718,0.115c-0.338,0.289-0.792,0.627-1.194,0.629
			C43.255,173.742,37.351,173.729,31.088,173.729z M84.098,164.465c0-0.944,0.018-1.889-0.005-2.832
			c-0.032-1.427-0.656-2.131-2.036-2.164c-1.935-0.048-3.872-0.045-5.807,0c-1.291,0.029-2.002,0.758-2.019,2.062
			c-0.022,1.982-0.031,3.965,0.003,5.947c0.023,1.303,0.738,1.998,2.056,2.006c1.936,0.011,3.87,0.024,5.805-0.007
			c1.303-0.021,2.001-0.706,2.003-2.039C84.098,166.447,84.098,165.455,84.098,164.465z"/>
		<path fill-rule="evenodd" clip-rule="evenodd" fill="#FFFFFF" d="M60.318,172.705c6.326,0.012,11.476,5.167,11.452,11.468
			c-0.023,6.307-5.179,11.46-11.481,11.478c-6.379,0.018-11.538-5.185-11.484-11.577C48.858,177.697,53.928,172.693,60.318,172.705z
			 M68.75,184.229c0.023-4.687-3.746-8.523-8.406-8.555c-4.634-0.033-8.487,3.816-8.486,8.479c0.001,4.618,3.743,8.415,8.342,8.464
			C64.875,192.668,68.728,188.889,68.75,184.229z"/>
		<path fill-rule="evenodd" clip-rule="evenodd" fill="#FFFFFF" d="M84.098,164.465c0,0.99,0,1.982,0,2.974
			c-0.002,1.333-0.7,2.019-2.003,2.039c-1.935,0.031-3.869,0.018-5.805,0.007c-1.317-0.008-2.032-0.703-2.056-2.006
			c-0.034-1.982-0.025-3.965-0.003-5.947c0.017-1.305,0.728-2.033,2.019-2.062c1.935-0.045,3.872-0.048,5.807,0
			c1.38,0.033,2.004,0.737,2.036,2.164C84.115,162.576,84.098,163.521,84.098,164.465z"/>
	</g>
</g>
</svg>
